<?xml version="1.0" encoding="UTF-8"?>
<svg version="1.1" xmlns="http://www.w3.org/2000/svg" width="422" height="347">
<path d="M0 0 C7.16103395 0.18361626 12.05601391 4.9935089 16.83984375 9.87890625 C21.51806488 15.17478982 23.52426005 19.1068033 23.38671875 26.26953125 C22.04704417 35.72844568 15.58486305 42.93978341 8.390625 48.66796875 C7.93171875 49.10753906 7.4728125 49.54710937 7 50 C7 50.66 7 51.32 7 52 C17.4347702 57.98716323 27.79469285 61.67342274 39.48022461 64.56469727 C49.73710018 67.17278491 49.73710018 67.17278491 53 71 C53.97590429 76.49962731 51.3738988 82.14898942 49 87 C48.34 87 47.68 87 47 87 C46.9175 87.556875 46.835 88.11375 46.75 88.6875 C45.69270397 91.94749609 44.44773313 93.55226687 42 96 C38.90453316 97.37898316 35.70555793 98.24730702 32.4375 99.125 C30.72544093 99.59808578 29.01566838 100.07954513 27.30859375 100.5703125 C26.55376709 100.77414551 25.79894043 100.97797852 25.02124023 101.18798828 C22.72020192 102.1124059 21.63339524 103.15647869 20 105 C18.33333333 106.66666667 16.66666667 108.33333333 15 110 C17.91517292 108.92598892 19.77810176 108.22189824 22 106 C23.84765625 105.11328125 23.84765625 105.11328125 26.0625 104.3125 C26.77535156 104.04050781 27.48820312 103.76851563 28.22265625 103.48828125 C36.02304355 102.11690514 44.71593309 104.8486546 52.347435 106.42158127 C54.41141053 106.84665415 56.47643975 107.26623362 58.54180908 107.68447876 C64.40912199 108.87365119 70.27444896 110.07248282 76.13916016 111.27441406 C96.52188663 115.4903727 96.52188663 115.4903727 117.05078125 118.8984375 C117.8539679 119.01408051 118.65715454 119.12972351 119.48468018 119.24887085 C131.80954595 120.89854758 144.16955531 119.97789039 156.53979492 119.36083984 C163.11171604 119.04612007 169.67058316 118.88918487 176.25 118.875 C177.08241211 118.87048828 177.91482422 118.86597656 178.77246094 118.86132812 C181.18456982 118.86714277 183.58923843 118.92068575 186 119 C186.82951172 119.01836914 187.65902344 119.03673828 188.51367188 119.05566406 C193.06518472 119.3065763 196.27740662 119.92961495 200.17578125 122.33984375 C206.30584079 126.0901088 213.24100578 127.13828825 220.1875 128.5625 C222.20717609 128.97863607 224.2252428 129.39935417 226.24055481 129.83616638 C228.06034634 130.23058061 229.88397044 130.60719027 231.70776367 130.98266602 C239.79420384 133.48145698 245.47130231 139.47756827 249.52099609 146.72021484 C250.97269116 149.68465063 252.34640441 152.67148215 253.6875 155.6875 C258.241191 167.111598 258.241191 167.111598 267.5625 174.3125 C272.92568334 176.08819731 278.02612061 176.39110195 283.625 176.4375 C284.41205322 176.4475708 285.19910645 176.4576416 286.01000977 176.46801758 C291.29307419 176.39034976 299.03807004 175.96192996 303 172 C303.17329506 166.80114812 302.87842023 161.85540896 302.3125 156.6875 C301.53500819 146.9002502 303.45879696 138.91063721 309.79296875 131.328125 C310.19128906 130.88984375 310.58960938 130.4515625 311 130 C312.32 130.33 313.64 130.66 315 131 C316.07281167 134.32727096 315.87570068 136.81381887 315.375 140.25 C314.66172893 147.215972 316.4947093 151.62637532 320.125 157.4375 C322.8313409 162.03514477 323.68941553 166.90328105 322.5234375 172.140625 C320.03709795 179.29909711 316.51981854 184.04765177 310 188 C305.42401285 189.92673143 300.71152394 191.43770597 296 193 C294.85015625 193.39832031 293.7003125 193.79664063 292.515625 194.20703125 C281.38858729 197.90298392 273.73162645 198.11938328 263 193 C254.04334575 187.69816263 248.27258138 179.60363616 242.5625 171.125 C242.11277832 170.45799072 241.66305664 169.79098145 241.19970703 169.10375977 C238 164.25080869 238 164.25080869 238 162 C237.34 162 236.68 162 236 162 C236.33 162.66 236.66 163.32 237 164 C237.92983258 176.63715886 235.785049 189.20303823 234.13623047 201.69311523 C231.91618928 218.65755246 231.49830959 234.18335568 234.3125 251.125 C234.54389715 252.57108897 234.77402616 254.0173814 235.00292969 255.46386719 C235.34492564 257.62315354 235.68779568 259.78225817 236.0352478 261.94067383 C237.15069168 268.87077753 238.13631297 275.81719559 239.09887695 282.77001953 C239.51407213 285.73695467 239.93095939 288.6797283 240.5625 291.609375 C242.36567857 301.46245792 241.41996651 312.59861059 238 322 C236.03380151 324.49160139 235.09464098 324.96845301 232 326 C226.39900817 326.46674932 221.2557589 326.12251802 216 324 C213.0625 321.375 213.0625 321.375 211 319 C211.43143353 317.62308448 211.87051164 316.24856381 212.3125 314.875 C212.55613281 314.10929687 212.79976563 313.34359375 213.05078125 312.5546875 C214 310 214 310 215.58203125 307.2890625 C217.4647152 302.92206557 217.45138664 299.20380895 217.375 294.5 C217.36702393 293.61940918 217.35904785 292.73881836 217.35083008 291.83154297 C217.14223248 282.15859945 216.01587043 272.47019629 211 264 C209.11712713 262.3067269 209.11712713 262.3067269 206.8125 261.125 C205.49378906 260.38443359 205.49378906 260.38443359 204.1484375 259.62890625 C201.13103071 258.06779132 198.08992963 256.57059841 195.03515625 255.0847168 C182.92055419 249.18110427 173.70297698 242.22433788 166 231 C166.31565918 232.24305908 166.31565918 232.24305908 166.63769531 233.51123047 C167.07393291 237.7119281 166.12608141 240.9008243 164.796875 244.8203125 C164.55841858 245.5602243 164.31996216 246.30013611 164.07427979 247.06246948 C163.31190857 249.42089453 162.53191088 251.77298889 161.75 254.125 C160.73889389 257.20903414 159.73570836 260.29559357 158.734375 263.3828125 C158.49074722 264.12700439 158.24711945 264.87119629 157.99610901 265.63793945 C156.28848072 270.91398255 154.89050858 276.20852122 153.7409668 281.63720703 C152.92713363 284.23235609 151.85490378 285.72757402 150.0625 287.75 C142.524454 296.92348241 142.4878397 310.08614134 143.23486328 321.34863281 C143.51487819 327.42653222 143.51487819 327.42653222 140.734375 330.5234375 C135.75703831 333.21119931 131.11122357 333.41917889 125.6875 332.3125 C121.75937025 330.91435212 120.87654984 330.57410569 119 327 C118.81060178 324.2063763 118.79776172 321.76575337 119 319 C119.04761475 318.24178955 119.09522949 317.4835791 119.14428711 316.70239258 C119.63343742 310.92968611 121.1143546 306.30072555 123.94140625 301.19921875 C126.97566438 292.02926523 124.53348654 282.15618536 122.5 273 C122.02793958 270.813212 121.55904939 268.62573657 121.09375 266.4375 C120.88427734 265.48746094 120.67480469 264.53742188 120.45898438 263.55859375 C120 261 120 261 120 257 C119.19594727 257.19110352 118.39189453 257.38220703 117.56347656 257.57910156 C114.48282613 258.30949258 111.40154098 259.03712206 108.31970215 259.76248169 C106.94135175 260.08715211 105.56317714 260.41256973 104.18518066 260.73873901 C96.56552423 262.53990183 88.9547231 264.25370585 81.24145508 265.61474609 C69.35246371 267.32820087 69.35246371 267.32820087 60 274 C58.48622134 277.65257145 57.49899659 281.41928926 56.70532227 285.28759766 C55.52376009 291.01619988 53.62773849 294.39644577 50 299 C46.16119622 306.2510738 44.81874301 314.20158668 45.08984375 322.37890625 C45.11264404 323.13316895 45.13544434 323.88743164 45.15893555 324.66455078 C45.2185556 326.1526546 45.30622517 327.63996179 45.42504883 329.12451172 C45.60802276 333.34721469 45.19640684 334.78177018 42.328125 337.96875 C37.41909538 340.96487137 33.57971529 340.87752199 28 340 C24.375 338.4375 24.375 338.4375 22 336 C20.08037719 327.06345088 21.11074979 316.75108996 26.09765625 308.94140625 C29.00258449 302.69140914 27.69006656 296.37170266 26.5625 289.875 C24.77997343 279.24211226 24.77997343 279.24211226 25 275 C23.20755859 275.16048828 23.20755859 275.16048828 21.37890625 275.32421875 C8.35239905 276.36502462 0.89319711 275.63828572 -9.73828125 267.5234375 C-12.63128638 265.49988961 -12.63128638 265.49988961 -16 265 C-20.9091549 266.86184021 -20.9091549 266.86184021 -23.93408203 270.89257812 C-24.60138031 273.16602985 -25.10408419 275.42558163 -25.5625 277.75 C-27.00826185 283.93955294 -28.35657309 288.43823416 -32.64453125 293.27734375 C-37.18710898 299.05047568 -38.13491347 307.68938954 -37.921875 314.78515625 C-37.89609375 315.64560547 -37.8703125 316.50605469 -37.84375 317.39257812 C-37.78109141 319.1770425 -37.70288135 320.96102656 -37.609375 322.74414062 C-37.50344608 327.15674213 -37.55603062 329.34072216 -40.078125 333.0859375 C-43.6546678 335.42885992 -45.74843267 335.64038432 -50 335.5625 C-51.19625 335.56378906 -52.3925 335.56507813 -53.625 335.56640625 C-57.69351285 334.88361185 -59.35766538 334.18575815 -62 331 C-62.35278445 327.9053996 -62.39971189 325.5458011 -62.125 322.5 C-62.06836182 321.69554443 -62.01172363 320.89108887 -61.95336914 320.06225586 C-61.40108385 314.01373383 -59.67626134 309.19441902 -57.08984375 303.69921875 C-49.20942937 284.18177669 -64.5322018 251.06086897 -70.16479492 232.56152344 C-76.37638321 212.06876857 -80.56649789 192.10135408 -81.83691406 170.70166016 C-81.97985984 168.33363929 -82.15102496 165.97048921 -82.3359375 163.60546875 C-83.09029503 153.1701896 -83.15787887 142.69774808 -83.23016357 132.23931885 C-83.2431959 130.56280049 -83.26099358 128.8863111 -83.28399658 127.2098999 C-83.46371921 113.07916409 -82.01428334 100.3504369 -76.125 87.3125 C-75.77566406 86.51158936 -75.42632812 85.71067871 -75.06640625 84.88549805 C-74.05821042 82.58380742 -73.0325411 80.29085348 -72 78 C-71.71737305 77.36707031 -71.43474609 76.73414062 -71.14355469 76.08203125 C-69.78637991 73.04332545 -68.40922176 70.01492155 -67 67 C-68.485 67.495 -68.485 67.495 -70 68 C-78.71770427 68.87852834 -84.99154205 66.21559661 -92 61 C-94 58 -94 58 -93.875 56 C-92.67607266 53.25959465 -91.59474875 52.54139463 -89 51 C-86.11584493 50.21754552 -83.20228119 49.76048297 -80.25 49.3125 C-79.45722656 49.18294922 -78.66445312 49.05339844 -77.84765625 48.91992188 C-75.90005926 48.60314405 -73.95022139 48.30019783 -72 48 C-73.06927734 47.76216797 -73.06927734 47.76216797 -74.16015625 47.51953125 C-82.76096654 45.42431367 -89.1126205 42.53731465 -94.05078125 34.94140625 C-96.26007562 30.4228083 -96.58680002 26.27170535 -95.33203125 21.4140625 C-93.38990583 16.13465219 -91.03480413 11.93134762 -87 8 C-86.01 8 -85.02 8 -84 8 C-82.84683274 14.34241995 -82.90492937 20.56688704 -83 27 C-72.78544763 26.51432608 -72.78544763 26.51432608 -62.625 25.4375 C-53.7257632 24.36345418 -45.35217021 24.21043893 -37.765625 29.58203125 C-33.98136681 32.75169276 -31.50467433 35.74205364 -29 40 C-25.91955617 41.1070345 -22.99813355 41.1052386 -19.75 41.0625 C-18.85796875 41.05347656 -17.9659375 41.04445312 -17.046875 41.03515625 C-16.03367188 41.01775391 -16.03367188 41.01775391 -15 41 C-14.67 40.01 -14.34 39.02 -14 38 C-11.671875 36.53515625 -11.671875 36.53515625 -8.75 35.0625 C-2.2953375 31.66399077 2.54862333 28.64709581 6 22 C6.62172791 17.60472909 6.07252201 13.29008806 5 9 C4.34 9 3.68 9 3 9 C2.505 7.02 2.505 7.02 2 5 C1.34 5 0.68 5 0 5 C-0.495 3.515 -0.495 3.515 -1 2 C-0.67 1.34 -0.34 0.68 0 0 Z M11 111 C12 113 12 113 12 113 Z " fill="#FEFEFE" transform="translate(96,4)"/>
</svg>
