<svg width="167" height="137" viewBox="0 0 167 137" fill="none" xmlns="http://www.w3.org/2000/svg">
<path d="M152.498 0.272647C152.354 0.442121 151.924 1.06787 151.546 1.68059C150.451 3.44052 149.408 4.67899 149.017 4.67899C148.861 4.67899 148.952 3.92287 149.265 2.59314C149.591 1.1852 149.669 0.311756 149.473 0.194427C149.304 0.077099 148.704 0.585523 146.605 2.61922C145.08 4.09234 144.519 4.54862 144.207 4.60077C143.972 4.63988 142.759 4.73113 141.508 4.80935C134.533 5.23955 130.74 6.36069 125.408 9.56767C121.992 11.6144 120.037 13.1397 117.508 15.7209C115.383 17.885 114.288 19.2017 109.934 24.8204C104.523 31.7819 103.924 32.3425 100.052 34.0893C96.0106 35.9014 91.3957 36.9443 84.6036 37.5571C81.7226 37.8178 73.5878 37.7787 71.2412 37.4919C67.1738 36.9834 64.4753 36.462 57.3574 34.7803C50.0178 33.0464 47.5669 32.7466 42.0395 32.877C36.877 33.0073 34.2436 33.3854 29.4983 34.663C27.0084 35.3408 25.9394 35.5364 23.7232 35.7059C16.3836 36.2534 15.0539 36.4229 12.942 37.0877C11.5992 37.5049 9.53946 38.5218 8.41832 39.317C3.66 42.6674 1.20914 49.1204 0.166215 60.9315C-0.0554051 63.5127 -0.0554051 89.5336 0.166215 93.588C0.426945 98.2289 0.713749 100.106 1.36557 101.658L1.74363 102.518L1.88703 102.127C2.10865 101.54 2.23902 100.745 2.43457 98.7374L2.60404 96.9123L2.68226 101.019C2.76048 104.865 2.91692 106.664 3.19068 106.937C3.36016 107.107 3.54267 106.572 4.05109 104.343C4.72899 101.345 4.72899 101.358 4.71596 104.213C4.70292 107.589 4.97669 108.906 5.7328 109.258C6.1239 109.44 6.82787 109.062 7.07556 108.541C7.16682 108.345 7.36237 107.211 7.50577 105.999C7.64917 104.799 7.81864 103.639 7.88383 103.431C8.09241 102.661 8.01419 105.217 7.7665 106.82C7.63613 107.68 7.54488 108.397 7.55791 108.41C7.55791 108.437 7.80561 108.15 8.07937 107.785C8.35314 107.42 8.79638 106.976 9.05711 106.82C9.38302 106.611 9.63072 106.312 9.81323 105.881C10.1 105.203 10.9213 102.075 12.4987 95.6086C13.0332 93.3794 13.6329 91.0198 13.8024 90.3549C14.3369 88.3603 14.4021 86.8872 14.8584 64.9076C15.1452 51.3497 15.2234 50.6848 16.8399 46.6044C18.4695 42.4718 19.6428 40.8162 20.4249 41.5332C20.8682 41.9373 20.6987 42.902 19.9687 44.0623C19.1343 45.4181 17.8828 48.0645 17.4005 49.5115C16.8399 51.1932 16.6704 53.3052 16.866 56.5512C17.1006 60.7229 17.6091 62.9913 19.8774 69.9267C22.0415 76.5753 22.4065 78.1658 22.3152 80.5514C22.1849 84.0322 20.7248 87.161 17.4135 91.111C14.728 94.305 14.5716 94.5918 14.4021 96.7428C14.2456 98.7504 14.0501 104.2 13.8806 111.135L13.7503 116.48L13.0463 119.544C11.7426 125.149 11.5471 126.505 11.9121 127.196C12.0946 127.535 13.0202 127.991 14.1935 128.33C15.2625 128.643 15.3407 128.8 15.2886 130.82C15.2364 132.815 15.3537 133.141 16.4879 134.262C17.8568 135.631 19.4733 136.165 21.8981 136.048C24.4663 135.931 25.4701 135.5 25.3006 134.588C24.9877 132.945 22.0806 129.047 19.721 127.131C18.5216 126.14 18.313 125.71 18.1566 123.911C18.0002 122.255 18.1044 115.163 18.313 112.726C18.9257 105.647 23.2539 97.2251 29.5114 90.9676C31.7276 88.7514 32.8357 87.904 33.0573 88.256C33.2138 88.4907 33.1225 89.0382 32.4967 91.5673C31.8188 94.318 31.7146 95.8824 32.1317 97.2642C32.2882 97.7857 33.1355 99.7151 34.022 101.54C34.9085 103.365 35.6907 105.099 35.7689 105.386C35.9514 106.103 36.0687 106.911 36.8118 112.374C37.5679 117.901 38.0112 120.613 38.4544 122.503C38.9498 124.563 39.2236 124.98 40.6185 125.801C42.0525 126.635 42.1046 126.714 43.643 130.794C43.8124 131.25 44.1514 131.811 44.4512 132.124C45.103 132.802 45.6766 132.945 48.297 133.049C50.4741 133.141 50.813 133.049 51.6213 132.15C51.9733 131.759 52.0645 131.576 51.9994 131.355C51.7386 130.494 49.7049 128.161 47.2019 125.853C46.3676 125.084 45.5854 124.276 45.4681 124.054C45.3507 123.833 44.8945 122.712 44.4512 121.551C44.008 120.404 43.2127 118.422 42.7043 117.158C41.2964 113.651 40.8662 111.943 40.6706 108.971C40.436 105.712 41.5441 97.4207 42.9651 91.6977C44.4382 85.766 46.6153 79.9648 49.2747 74.8154C49.9657 73.4726 51.2954 71.9865 52.234 71.4911C52.6642 71.2695 52.7946 71.2564 53.4594 71.3998C54.7892 71.6736 56.3666 72.3515 59.3519 73.9028C65.4139 77.0707 68.8556 78.3092 73.7182 79.1044C77.7986 79.7693 81.1881 80.0039 95.2284 80.6166C99.8824 80.8252 103.702 81.0599 103.846 81.1511C104.354 81.464 104.549 92.2322 104.171 98.8677C103.715 106.677 103.181 113.025 102.385 119.987C102.099 122.49 101.838 125.28 101.786 126.192C101.695 128.226 101.799 128.656 102.568 129.073C103.441 129.569 103.741 130.338 104.211 133.441C104.393 134.627 104.576 135.031 104.993 135.148C105.175 135.2 106.362 135.24 107.613 135.227C110.09 135.214 111.107 135.044 112.424 134.444L113.128 134.131L112.815 133.766C112.645 133.571 112.085 132.971 111.576 132.437C108.108 128.8 107.496 127.587 107.209 123.937C107.013 121.473 107.131 116.663 107.418 115.085C107.887 112.426 109.49 107.42 109.777 107.693C109.881 107.811 110.207 110.614 110.338 112.621C110.416 113.729 110.559 116.61 110.677 119.009C111.133 129.204 111.263 130.129 112.15 130.573C112.945 130.964 113.245 131.628 113.831 134.379C114.001 135.2 114.21 135.97 114.301 136.074C114.666 136.517 115.578 136.765 117.117 136.83C120.428 136.986 122.866 136.335 122.866 135.305C122.866 134.562 121.81 133.493 118.942 131.329C116.374 129.373 115.891 128.747 115.122 126.323C114.535 124.445 114.34 122.972 114.34 120.117C114.327 116.545 114.692 114.147 115.787 110.47C116.856 106.911 117.625 103.235 117.912 100.354C118.094 98.607 118.199 98.2289 120.232 91.7498C122.018 86.0659 122.501 84.4494 123.374 81.0208L123.909 78.961L125.238 77.5661C127.272 75.4411 128.015 74.333 128.576 72.6253C129.293 70.4482 129.762 67.3455 130.297 61.1922C131.053 52.3405 131.014 52.5881 132.174 49.9157C133.282 47.3866 133.712 46.0829 134.208 43.7233C135.264 38.6912 137.623 30.5695 138.601 28.627C138.901 28.0274 139.07 27.897 139.227 28.1317C139.318 28.2881 141.886 29.2919 145.093 30.4261C149.395 31.9514 150.477 32.5641 152.641 34.6499C154.336 36.3056 155.092 37.3354 155.6 38.7043C155.822 39.317 156.161 40.0861 156.344 40.4381C156.748 41.1812 157.817 42.2241 158.195 42.2241C158.338 42.2241 158.794 42.0546 159.185 41.833C159.876 41.468 159.968 41.455 161.05 41.5202C162.627 41.6244 163.083 41.3768 164.061 39.8384C164.452 39.2257 165.13 38.1958 165.56 37.5571C166.004 36.9183 166.46 36.0709 166.603 35.6668L166.851 34.9237L166.551 34.311C166.382 33.959 165.443 32.3033 164.452 30.6216C160.15 23.2821 158.677 20.1664 157.465 15.8513C156.604 12.7616 156.213 12.1489 153.775 9.95877C152.094 8.4335 151.546 7.78167 151.546 7.29932C151.546 7.12985 151.729 6.63446 151.937 6.19122C152.667 4.70506 153.319 1.3286 153.058 0.324793C152.954 -0.0923756 152.85 -0.105412 152.498 0.272647Z" fill="white"/>
</svg>
