<svg width="167" height="137" viewBox="0 0 167 137" fill="none" xmlns="http://www.w3.org/2000/svg">
<path d="M30.7798 0.0626429C30.7798 0.101624 30.2731 0.764301 29.6624 1.51793C26.388 5.61094 24.309 9.61298 22.8537 14.6155L22.4379 16.0059L22.7237 16.9284C22.8797 17.4352 23.0746 18.0719 23.1655 18.3317L23.3085 18.8125L24.6338 17.0324C28.0771 12.4326 32.1961 8.70343 37.1987 5.63692C38.7839 4.6624 40.9149 3.57093 41.0188 3.67488C41.0578 3.71386 41.0578 3.76584 41.0318 3.79182C35.1587 8.36559 30.8578 13.4851 27.8822 19.4362L27.2845 20.6186L28.2461 21.2293C29.8053 22.1908 31.5075 23.5812 33.2876 25.3093C34.8598 26.8426 35.6784 27.7391 40.1223 32.8197C41.2657 34.132 42.2792 35.1585 42.799 35.5223C44.2932 36.5878 45.9564 37.1985 49.3608 37.9132C50.4002 38.1341 51.5697 38.4069 51.9595 38.5239C52.3493 38.6408 53.3498 38.8097 54.1684 38.9007C54.987 39.0046 56.0395 39.1476 56.5073 39.2255C56.975 39.3165 58.5213 39.4204 59.9506 39.4724C62.4584 39.5634 62.5753 39.5764 63.3289 39.9402C64.0696 40.291 64.0826 40.317 63.7188 40.356C63.199 40.421 61.9646 40.7978 61.9646 40.9017C61.9646 40.9407 62.3024 40.9927 62.7182 41.0187C63.121 41.0446 64.3814 41.2655 65.5119 41.5124C66.6423 41.7463 67.5909 41.9542 67.6298 41.9542C67.6558 41.9542 67.6818 41.9932 67.6818 42.0452C67.6818 42.1101 67.37 42.1491 66.9932 42.1491C66.6293 42.1491 66.1356 42.2011 65.9277 42.2661L65.5379 42.383L66.1226 42.5389C66.4474 42.6299 67.383 42.9677 68.2016 43.2926C69.0202 43.6174 69.9687 43.9162 70.3065 43.9682C70.6574 44.0202 70.9302 44.1112 70.9302 44.1631C70.9302 44.2151 70.6574 44.3061 70.3065 44.358L69.6958 44.449L70.4105 44.7738C71.7099 45.3456 74.4775 46.3461 76.2576 46.8788C83.4561 49.0098 90.6416 50.0622 99.1265 50.2312C106.117 50.3611 110.834 49.9453 116.083 48.7369C118.097 48.2821 118.253 48.2561 120.696 48.2561C123.464 48.2561 124.308 48.3731 126.673 49.1267C130.454 50.3221 134.287 52.3751 141.954 57.3127C144.734 59.1058 146.618 60.0414 148.243 60.4442C150.594 61.0289 151.608 60.886 154.765 59.4827C157.793 58.1313 158.962 57.7935 160.781 57.7155C162.458 57.6376 163.263 57.8195 164.316 58.5211C164.887 58.8979 166.044 60.1843 166.044 60.4442C166.044 60.4832 165.849 60.4572 165.628 60.3922C165.394 60.3272 165.017 60.2753 164.783 60.2753H164.381L165.121 61.0159C165.862 61.7695 166.304 62.6921 166.304 63.4847C166.304 63.7965 166.291 63.7965 165.875 63.3548C165.459 62.913 164.744 62.6141 164.095 62.6141C163.406 62.6141 161.912 63.0169 161.015 63.4457C160.093 63.8875 160.08 63.8875 159.326 63.7186C158.91 63.6276 158.559 63.5627 158.546 63.5757C158.534 63.5887 158.715 63.9005 158.962 64.2773L159.417 64.94L158.871 65.0959C158.313 65.2388 156.61 65.1999 156.065 65.018L155.753 64.914L156.026 65.4467C156.182 65.7456 156.299 66.0185 156.299 66.0574C156.299 66.3043 153.661 66.0055 152.751 65.6546C152.53 65.5767 152.517 65.6157 152.595 66.1744L152.686 66.7851L152.128 66.6941C150.776 66.4992 149.477 65.9795 148.645 65.2778C148.424 65.0829 148.243 64.953 148.243 64.979C148.243 65.005 148.359 65.3428 148.502 65.7196C148.645 66.1094 148.736 66.4602 148.697 66.4862C148.541 66.6552 146.592 65.5377 145.93 64.901L145.189 64.1994L145.176 66.2913C145.15 69.7866 144.604 72.2164 142.33 78.7263C140.719 83.365 140.303 84.6514 139.875 86.3276C139.277 88.7184 139.251 89.0042 139.537 90.1217C140.641 94.4876 143.149 98.8924 147.242 103.609C147.736 104.181 148.256 104.87 148.398 105.155C149.139 106.598 149.334 108.352 149.23 112.419C148.983 122.125 148.983 123.684 149.23 125.309C149.542 127.375 149.542 129.116 149.204 130.051C148.879 131 148.554 131.065 148.048 130.285C147.801 129.908 147.658 129.791 147.619 129.921C147.515 130.259 147.034 130.701 146.06 131.377L145.124 132.039L145.202 132.637C145.293 133.391 145.033 134.092 144.526 134.43C144.214 134.625 143.812 134.677 141.746 134.716C136.197 134.82 136.431 134.833 135.6 134.43L134.846 134.053L135.989 132.871C137.484 131.325 138.263 130.285 138.159 129.999C138.042 129.7 138.38 129.363 139.667 128.531C141.187 127.53 142.123 126.543 142.772 125.218C143.422 123.905 143.669 122.814 143.773 120.761C143.864 118.981 143.656 115.199 143.37 113.523C142.746 109.937 141.343 107.286 139.212 105.688C138.783 105.363 138.393 105.103 138.341 105.103C138.224 105.103 136.925 110.535 136.314 113.614C135.288 118.734 134.729 123.554 134.729 127.193C134.729 128.518 134.69 128.882 134.534 129.012C134.235 129.259 133.768 128.765 133.144 127.491C132.611 126.426 132.611 126.426 132.273 126.608C131.819 126.842 131.247 127.478 130.597 128.427C130.311 128.869 129.986 129.298 129.869 129.389C129.714 129.518 129.675 129.687 129.74 130.012C129.843 130.571 129.61 131.143 129.194 131.338C129.012 131.416 128.388 131.481 127.803 131.481C127.219 131.494 126.322 131.545 125.828 131.61C122.957 132.013 121.346 132.13 120.397 132C119.527 131.896 118.747 131.74 118.747 131.688C118.747 131.688 119.63 130.779 120.709 129.687C122.515 127.868 122.658 127.686 122.437 127.517C122.047 127.245 122.385 126.764 123.49 126.062C126.504 124.152 127.596 123.385 128.245 122.684C129.272 121.618 129.506 121.086 129.727 119.357C129.831 118.565 130.103 116.733 130.324 115.303C130.948 111.223 131.091 109.742 131.091 107.377C131.091 104.064 130.662 102.063 129.48 99.841C128.83 98.6066 125.296 93.2662 123.866 91.3301C122.593 89.602 120.709 87.7179 119.864 87.3021C118.721 86.7563 118.253 86.8343 116.473 87.8998C111.159 91.0702 106.403 92.8244 100.79 93.682C98.7107 94.0068 99.0355 94.0068 81.4811 93.9548C69.293 93.9288 65.8887 93.7599 59.8856 92.8894C58.4953 92.6944 57.3259 92.5515 57.2999 92.5775C57.2739 92.6035 57.3519 93.8379 57.4688 95.3192C57.9106 100.789 58.0275 105.467 57.8196 109.131C57.7157 110.743 57.7287 110.769 58.3394 113.614C60.0935 121.761 60.5483 124.789 60.2754 126.712C60.1065 127.894 59.8336 128.336 59.171 128.505C58.2484 128.752 58.0795 128.856 58.0015 129.233C57.7936 130.246 57.6377 130.61 57.4038 130.662C57.2609 130.701 57.157 130.844 57.157 130.987C57.157 132.13 55.2209 133.092 52.0504 133.508C50.5302 133.702 48.2953 133.702 47.7755 133.495C47.6326 133.443 47.5027 133.534 47.3337 133.806C47.2038 134.027 46.9179 134.287 46.6971 134.404C46.3982 134.534 46.2423 134.729 46.1383 135.093C46.0604 135.366 45.8135 135.755 45.5796 135.963L45.1898 136.353L43.4746 136.366C42.5261 136.366 41.4996 136.444 41.1747 136.535C40.3821 136.756 38.8229 136.639 37.4586 136.275C36.8609 136.106 36.3671 135.937 36.3671 135.898C36.3671 135.859 36.9908 135.158 37.7574 134.339C38.7319 133.274 39.2387 132.611 39.4986 132.052C39.9274 131.117 40.1612 130.974 41.9414 130.584C44.3842 130.051 44.6441 129.661 45.2678 125.698C45.9954 121.06 45.9954 116.551 45.2678 112.445C45.0469 111.197 44.9039 109.716 44.813 107.702C44.5141 101.153 44.3322 99.737 43.5136 97.3982C42.9939 95.8779 42.682 94.5266 42.3442 92.2007C42.0453 90.1087 41.7984 89.1472 41.4216 88.5235C41.2917 88.3026 40.642 87.7698 39.9793 87.3411C36.3281 84.9502 34.2621 81.6239 33.7814 77.3619C33.3006 73.074 32.5729 71.2289 29.0906 65.4857C27.0506 62.1204 26.401 60.886 25.8292 59.3267C25.3485 58.0144 24.6728 55.3637 24.1531 52.674C23.3734 48.6459 22.6978 46.6319 22.0351 46.3591C21.6453 46.1901 20.9046 45.3715 20.9046 45.1117C20.9046 45.0207 20.8137 44.9427 20.6967 44.9427C20.5798 44.9427 20.2809 44.7348 20.0341 44.488C19.6443 44.0982 19.4883 44.0332 18.9816 44.0332C18.6437 44.0202 18.111 43.9682 17.7862 43.9033C17.4613 43.8513 17.1755 43.8123 17.1495 43.8383C17.1365 43.8643 17.2924 44.1112 17.5133 44.384C18.6567 45.8263 18.6697 48.0352 17.5263 50.3611C17.0845 51.2577 16.7856 51.6345 15.5123 52.8819C13.8231 54.5451 13.2384 55.4546 13.2384 56.4291C13.2384 56.9359 13.3163 57.1048 13.7061 57.5466C13.966 57.8325 14.1219 58.0663 14.057 58.0663C13.6672 58.0663 12.004 57.5336 11.2244 57.1438C10.5097 56.793 10.0289 56.4161 8.92448 55.2987C7.2353 53.5965 7.07938 53.2587 7.15734 51.6085C7.19632 50.9848 7.35225 49.7634 7.50817 48.9188C7.76804 47.4375 7.78104 46.398 7.52117 45.9952C7.4562 45.8783 7.26129 45.9433 6.8325 46.2291C5.10434 47.4115 3.09033 47.3206 2.37568 46.0472C2.21975 45.7873 1.86892 45.4365 1.60905 45.2806C0.816436 44.8388 0.569556 44.41 0.543569 43.3965C0.530575 42.7598 0.452613 42.396 0.257708 42.0711C-0.275032 41.2006 0.0238223 39.9922 1.1023 38.6408C1.5051 38.1341 2.41466 36.8477 3.1423 35.7822C5.01339 33.0016 5.72804 32.053 6.87148 30.8576C7.41722 30.2859 7.97594 29.5972 8.10588 29.3504C8.31378 28.9476 8.50868 27.3233 8.58665 25.4523C8.58665 25.2703 8.37875 24.6207 8.11887 23.984C7.46919 22.4507 6.98842 20.5666 6.91046 19.1893C6.81951 17.8899 6.92346 17.6561 7.57314 17.6561C8.20983 17.6691 8.89849 18.0459 10.5747 19.3452C13.1864 21.3463 13.4073 21.4112 15.6292 20.6576C16.4738 20.3717 17.1755 20.1249 17.2014 20.0989C17.2274 20.0729 17.4483 19.3452 17.7082 18.4747C19.6832 11.7569 23.9841 5.31208 29.3765 0.985193C30.5849 0.0236619 30.7798 -0.106275 30.7798 0.0626429Z" fill="white"/>
</svg>
