<svg width="165" height="93" viewBox="0 0 165 93" fill="none" xmlns="http://www.w3.org/2000/svg">
<path d="M101.836 0.0213504C102.158 0.0471121 103.28 0.124397 104.35 0.201683C111.607 0.729799 121.688 2.26262 127.682 3.75681C133.985 5.32828 137.466 6.69365 140.701 8.85764C150.743 15.5815 152.238 16.6635 154.249 18.6729C155.641 20.064 155.693 20.1413 156.08 21.2233C156.505 22.4083 157.291 25.2937 157.846 27.7281C158.155 29.0806 158.232 29.2738 159.122 30.6263C161.481 34.2201 163.363 38.445 164.098 41.7554C164.471 43.4042 164.471 46.1993 164.098 50.347C163.84 53.3482 163.84 53.593 164.278 54.7651C164.832 56.2722 164.639 58.8226 163.75 61.5791C163.286 63.0218 163.157 63.6272 163.105 64.619C163.041 65.7912 163.054 65.92 163.505 67.2338C164.278 69.4622 164.613 71.1367 164.704 73.1848C164.832 76.3535 164.407 78.1053 162.693 81.4157C161.404 83.9146 159.547 86.8901 159.38 86.7355C159.354 86.7097 159.47 85.9626 159.638 85.0738C160.179 82.2143 160.295 81.1967 160.295 78.8395C160.295 76.5982 160.282 76.4823 159.882 75.1684C159.225 73.0045 158.929 71.3815 158.851 69.4751C158.761 67.3755 158.89 66.5769 159.586 64.9024C160.166 63.5112 160.901 61.2828 161.275 59.7887C161.455 59.0545 161.571 57.9853 161.648 56.1691C161.764 53.6831 161.88 52.7557 162.383 50.2439C162.564 49.3423 162.602 48.4535 162.602 46.1864C162.602 43.6747 162.564 43.1079 162.319 41.9486C161.919 40.1196 161.339 38.3549 160.669 36.9766C160.14 35.8817 159.212 34.2716 159.135 34.3618C159.122 34.3876 159.186 34.9543 159.277 35.6241C159.663 38.4708 159.496 39.3209 157.588 44.5119C153.927 54.456 153.437 55.5895 152.084 56.9291C151.555 57.4701 150.833 58.024 150.434 58.2301C149.377 58.7582 149.041 59.0416 148.758 59.5826C148.423 60.2266 148.423 61.0768 148.758 62.2618C148.9 62.7642 149.016 63.3051 149.016 63.4597C149.016 63.6014 149.196 64.1166 149.402 64.6061C149.738 65.3661 149.789 65.6366 149.789 66.6284C149.776 67.8907 149.789 67.8779 148.977 70.6601C148.216 73.3136 147.907 75.0525 147.649 78.4144C147.495 80.4496 147.456 81.5831 147.546 82.5363C147.675 84.0949 147.675 85.0223 147.559 85.486C147.507 85.6664 147.185 86.1816 146.824 86.6324C146.283 87.3022 146.18 87.5212 146.18 87.972C146.18 88.7964 145.948 89.4405 145.445 89.9943C145.058 90.4323 144.916 90.4967 144.452 90.4967C144.156 90.4967 143.846 90.4323 143.769 90.355C143.537 90.1232 143.382 90.3164 143.292 90.9862C143.202 91.656 143.034 91.875 142.351 92.2227C142.003 92.4031 141.41 92.4288 138.523 92.4288C135.223 92.4288 135.094 92.416 134.849 92.1583C134.681 91.978 134.514 91.9136 134.333 91.978C133.882 92.1197 133.843 91.6946 134.269 91.2567C134.72 90.7801 135.132 90.5611 136.305 90.1618C136.795 89.9943 137.337 89.7625 137.504 89.6594C137.891 89.4018 138.265 88.6419 138.381 87.8819C138.445 87.4439 138.639 87.0446 139.025 86.5294C139.322 86.1301 139.631 85.6664 139.721 85.5118C139.928 85.1125 140.108 81.8665 140.121 78.6849C140.121 76.4565 140.082 75.9799 139.863 75.2715C139.721 74.8335 139.605 74.3183 139.605 74.138C139.605 73.6743 139.464 73.2363 139.335 73.2363C139.27 73.2363 139.219 73.6485 139.219 74.1509C139.219 74.9881 139.167 75.1684 138.523 76.4952C138.136 77.2938 137.633 78.5432 137.401 79.2903C137.182 80.0374 136.692 81.3899 136.318 82.3173C135.945 83.2319 135.609 84.1979 135.558 84.4556C135.468 84.9837 135.223 85.2542 134.565 85.5247C133.998 85.7694 133.843 85.9497 133.56 86.7226L133.341 87.3409L132.335 87.4053L131.317 87.4697L131.162 88.088C131.072 88.4229 130.866 88.8479 130.711 89.0154L130.414 89.3374H126.766C123.183 89.3374 123.105 89.3374 122.848 89.054C122.293 88.4486 122.641 88.0751 124.369 87.4053C125.129 87.109 126.032 86.7097 126.38 86.5294C127.05 86.1687 128.146 85.0352 128.829 83.9919C129.486 83.0129 130.44 79.7927 131.111 76.3277C131.433 74.6661 131.497 72.2445 131.252 71.652C131.162 71.4459 130.569 70.4669 129.912 69.4622C128.03 66.5511 127.463 65.379 127.037 63.537C126.779 62.4035 126.457 60.188 126.457 59.4409V58.8612L125.323 58.9128C124.395 58.9514 124.072 58.9128 123.428 58.6809C123.002 58.5263 122.203 58.2816 121.636 58.127C120.179 57.7406 119.445 57.8952 117.047 59.0673C114.353 60.3941 112.625 61.4503 111.568 62.4421C110.498 63.434 110.215 63.5756 109.235 63.5756C107.959 63.5756 107.701 63.3824 106.477 61.5018C105.278 59.6599 103.177 57.9853 101.32 57.4057C99.7219 56.9033 95.932 56.2593 91.7813 55.7698C90.8274 55.6668 88.5586 55.538 86.7539 55.4993C83.9438 55.4349 83.0672 55.4736 80.6953 55.7054C73.6313 56.4268 70.1508 57.1867 68.7973 58.3074C67.8563 59.0802 67.5211 60.1107 66.9024 64.0909C66.477 66.8603 66.2192 68.0324 65.8582 68.7538C65.7293 69.0114 64.9945 69.8873 64.2469 70.6859C62.0813 72.9787 61.4367 74.138 60.7793 76.9074C60.3152 78.8395 60.0703 80.7587 60.0703 82.4461V83.9532L59.5031 84.9966C58.8586 86.1945 58.3301 87.5985 58.0852 88.8222L57.9176 89.6594L57.0152 89.6981C55.9969 89.7367 55.9453 89.6981 55.9453 88.6547C55.9453 88.0493 55.7906 88.0365 55.5715 88.629C55.3395 89.273 54.8625 89.7883 54.3082 90.0201C53.8828 90.1747 53.2383 90.1876 49.4613 90.0459C46.6512 89.9557 45.0656 89.8527 44.9754 89.7625C44.8852 89.6723 44.8594 89.4791 44.9109 89.3117C44.9625 89.0927 45.3363 88.8351 46.316 88.3327C47.8242 87.5599 48.9715 86.7097 49.4484 86.0142C50.2734 84.7905 51.6527 82.4719 52.1555 81.4414C52.9547 79.8056 53.148 78.788 53.0578 76.7528C53.0191 75.8511 52.9418 73.5068 52.9031 71.5618L52.8387 68.0196L51.6012 64.5031C50.4281 61.1927 50.3508 60.9995 50.0414 60.9995C49.268 60.9995 46.9605 61.4245 46.5223 61.6564C46.2516 61.7852 45.375 62.3133 44.5758 62.8157C43.1836 63.7045 41.598 64.5546 40.7859 64.8637C40.5797 64.9539 39.8578 65.0698 39.1875 65.1342C36.7898 65.3661 35.3203 65.8813 33.2578 67.2209C31.582 68.3029 28.5785 69.81 27.2508 70.2222C25.8973 70.6473 24.866 70.6086 23.3449 70.0805L22.3137 69.7198L21.1664 69.9903C19.8516 70.3124 18.9621 70.351 18.2402 70.0805C17.3895 69.7842 15.9844 69.8486 14.0508 70.2866C10.8539 71.0208 8.83008 70.9178 7.0125 69.9646C6.56133 69.7198 5.85234 69.4493 5.45273 69.3592C4.79531 69.2046 4.70508 69.1402 4.52461 68.7151C4.36992 68.3545 4.20234 68.2128 3.81562 68.0711C3.24844 67.8779 3.18398 67.7748 2.56523 66.2549C2.32031 65.6366 1.98516 65.0698 1.67578 64.7478C1.40508 64.4644 1.08281 64.0909 0.966797 63.9234C0.721875 63.537 0.257812 61.6822 0.257812 61.0639C0.257812 60.2653 1.06992 59.866 3.1582 59.6856C3.50625 59.647 3.60937 59.5182 4.22812 58.3589C5.14336 56.6457 5.53008 56.079 7.07695 54.1984C9.52617 51.2229 10.1191 50.1795 10.3383 48.4792C10.5059 47.1396 10.5703 47.3715 9.56484 45.5424C8.95898 44.4218 8.9332 44.2801 9.075 42.9018C9.16523 41.8842 9.16523 41.8456 8.64961 40.5704C8.01797 39.0247 7.96641 38.1359 8.3918 36.4871C8.53359 35.9204 8.62383 35.315 8.58516 35.1475C8.41758 34.5164 7.70859 33.9367 6.22617 33.2412C3.97031 32.172 3.09375 31.206 2.43633 29.0549C2.01094 27.6766 2.01094 25.7187 2.44922 23.9669C2.99062 21.7643 3.49336 21.584 4.98867 23.0266C6.1875 24.1859 6.52266 24.7398 6.75469 25.9763C7.14141 27.9858 7.66992 28.8617 8.71406 29.2352L9.24258 29.4155L9.33281 27.6122C9.39727 26.4014 9.52617 25.3709 9.74531 24.495C9.91289 23.7737 10.0547 23.0395 10.0547 22.8592C10.0547 22.6788 10.132 22.4341 10.2223 22.2924C10.4414 22.009 10.7379 22.0477 12.2332 22.6273C13.2129 23.0009 13.4063 23.1297 14.4891 24.2245C15.8168 25.5641 16.6934 26.2082 17.3379 26.3112C17.6859 26.3628 17.9438 26.2855 18.6012 25.9248C20.2383 25.0103 22.4168 23.2714 26.6449 19.523C31.6336 15.092 39.1617 9.54033 42.5133 7.81429C45.3105 6.38451 51.5754 4.40085 56.332 3.43479C61.3207 2.43008 65.6004 2.01789 74.25 1.74739C78.6844 1.6057 79.5223 1.5413 84.2402 0.910132C90.1442 0.111517 90.9692 0.059993 96.293 0.00846947C99.0258 -0.00441142 101.514 -0.00441142 101.836 0.0213504Z" fill="white"/>
</svg>
