<svg width="104" height="123" viewBox="0 0 104 123" fill="none" xmlns="http://www.w3.org/2000/svg">
<path d="M38.1348 0.0825361C39.0103 0.370198 39.323 0.857973 39.2104 1.796C39.1729 2.1462 38.9478 3.27183 38.6976 4.29741C38.1598 6.61121 37.7346 9.12513 37.7846 9.66293C37.8221 10.0381 37.9222 9.92558 39.3855 7.89944C41.7118 4.64761 43 3.37189 43.9256 3.37189C45.0387 3.37189 45.8892 5.81076 45.8892 8.97504C45.8892 13.1024 44.5759 17.0046 40.7363 24.2586C38.8227 27.8982 38.6351 28.3234 38.6351 29.1489C38.6351 31.0375 39.5981 35.7401 40.3736 37.7037C41.174 39.7048 42.3872 41.2557 43.5503 41.7685C43.838 41.8936 45.6515 42.2563 47.5776 42.5815C58.096 44.3199 66.3507 46.9089 74.4677 51.0237C79.7332 53.7002 83.0601 55.989 86.462 59.2784C91.84 64.4938 95.1419 70.4221 98.031 80.04C100.357 87.7569 101.17 91.8092 101.17 95.5988V96.6994L101.833 97.4248C102.734 98.3879 103.722 100.339 103.922 101.552C104.385 104.316 102.771 107.243 99.6569 109.307C99.0691 109.694 98.2686 110.144 97.8809 110.295C97.2681 110.545 97.0805 110.707 96.5802 111.42C95.8673 112.421 94.2914 114.072 93.5785 114.572C92.0026 115.673 88.9884 116.448 84.7861 116.861C82.3847 117.098 80.5587 117.186 75.4683 117.299L71.2034 117.399L67.4638 118.662C61.523 120.675 61.7731 120.625 57.4582 120.625C53.5685 120.625 52.8431 120.55 51.7425 119.988C50.9295 119.575 50.7669 119.3 50.7669 118.299C50.7669 116.711 51.4298 114.872 52.5804 113.234C53.2558 112.296 54.8692 110.77 55.8823 110.107C56.295 109.844 56.6452 109.594 56.6452 109.544C56.6452 109.507 56.2075 109.231 55.6697 108.931C51.88 106.805 47.7652 104.391 46.7647 103.703C45.3639 102.753 44.0631 101.677 41.8244 99.6261C39.0603 97.0996 38.1723 96.6994 37.1968 97.5624C36.3213 98.3253 35.821 99.8137 34.883 104.304C33.9825 108.656 33.5697 109.894 32.6942 110.932C31.9688 111.795 31.381 112.708 30.3179 114.622C28.1292 118.562 27.1661 120.038 26.103 121.076C24.9524 122.189 24.1019 122.451 21.7506 122.451C17.6107 122.451 13.4584 121.176 12.6705 119.675C12.3953 119.137 12.3078 118.074 12.4954 117.511C12.5954 117.211 13.1457 116.511 14.0713 115.535C15.1719 114.372 15.6096 113.809 15.9348 113.134C17.198 110.495 18.1235 105.93 18.1235 102.303C18.1235 100.301 17.9234 99.0507 17.3981 97.8376C15.5221 93.4976 12.3328 79.4147 11.6949 72.5984C11.6449 72.1856 11.5323 70.4096 11.4323 68.6586C11.0195 61.9424 10.4317 58.9782 8.40557 53.4376L7.84275 51.9117L7.02979 51.5365C5.19126 50.6735 3.3152 49.0601 2.20208 47.3717C0.938865 45.4456 0.125913 43.0692 0.025857 41.0056C-0.0366782 39.8174 0.000842938 39.5422 0.288505 38.5042C0.951378 36.2029 2.80241 32.8635 5.59148 28.9613C7.73019 25.9596 9.26855 24.5588 11.7199 23.3206C13.8586 22.2575 15.9598 21.6697 20.9376 20.7567C24.1769 20.1688 23.9018 20.2939 24.2395 19.2308C25.2275 16.1416 28.667 9.57538 31.406 5.53561C33.3321 2.70901 34.9455 0.933015 36.1962 0.257635C36.6715 0.00749389 37.647 -0.0800554 38.1348 0.0825361Z" fill="white"/>
</svg>
