<svg width="107" height="229" viewBox="0 0 107 229" fill="none" xmlns="http://www.w3.org/2000/svg">
<path d="M59.2462 0.998299C62.1314 3.2484 65.5247 5.063 68.8454 6.13361C72.3657 7.27681 75.4324 9.21843 79.606 12.9928C81.2391 14.4808 81.2935 14.4989 81.4024 14.0453C81.7653 12.5754 80.858 10.2346 79.0253 7.82119C78.4628 7.0772 78.0273 6.46024 78.0636 6.42395C78.1543 6.33322 83.961 10.4342 85.83 11.9222C86.7736 12.6662 88.6427 14.3537 89.9855 15.6602C92.4352 18.0737 93.2699 19.235 93.2699 20.3238C93.2699 20.9589 93.8868 21.7029 94.6671 22.0295C95.0119 22.1747 96.4999 22.6283 97.9697 23.0457C106.172 25.3321 107.46 26.2393 106.879 29.3242C106.643 30.5037 106.535 30.6488 106.154 30.1952C105.972 29.9593 105.863 29.9956 105.355 30.3585C105.047 30.5944 104.611 30.8847 104.393 30.9936C103.994 31.1932 103.994 31.1751 104.466 30.1589L104.938 29.1427L104.412 28.7072C103.776 28.1991 103.668 28.1991 103.54 28.6165C103.468 28.8161 103.214 29.1427 102.978 29.3786L102.524 29.796V28.7072V27.6003L101.78 27.31C100.946 26.9833 100.71 27.0378 100.71 27.6184C100.71 28.0177 100.419 28.6165 100.311 28.4713C100.274 28.4169 100.129 28.0177 99.9839 27.564C99.7117 26.7474 99.7117 26.7474 98.7863 26.693L97.8608 26.6386L97.516 27.5096C97.2801 28.1265 97.1713 28.2717 97.1168 28.0177C97.0805 27.818 96.9717 27.3825 96.8628 27.0559C96.6995 26.4934 96.645 26.4571 95.9373 26.5115C95.3204 26.5478 95.1571 26.6386 95.1208 26.947C95.0845 27.1648 94.8123 27.6003 94.5219 27.9451L93.9776 28.562L94.0864 27.9088C94.2316 26.9833 93.7961 26.5115 92.6711 26.3664C91.8908 26.2575 91.8182 26.2756 91.8182 26.6204C91.8182 27.0922 91.4553 27.9269 91.2375 27.9269C91.1649 27.9269 91.0924 27.691 91.0924 27.3825C91.0924 26.5115 90.7294 25.9672 89.8403 25.5317C89.3866 25.3139 88.443 24.5699 87.7535 23.8804L86.5014 22.6102L86.5922 23.3541C86.6829 23.9167 87.0277 24.4973 88.1164 25.8764C89.6407 27.7818 89.9129 28.1084 90.0762 28.1084C90.1851 28.1084 90.9109 28.6891 91.4916 29.2334C91.8001 29.5419 91.8182 29.5419 91.8182 29.1971C91.8182 28.6346 92.163 28.7616 92.4896 29.4512C92.6529 29.8141 93.0158 30.177 93.3062 30.304C93.7054 30.4674 93.778 30.5581 93.5965 30.667C93.415 30.794 93.415 30.8303 93.6328 30.8303C93.778 30.8303 94.0864 30.8847 94.3042 30.9392C94.6853 31.048 94.7216 30.9936 94.7216 30.304C94.7216 29.9048 94.7941 29.5601 94.8849 29.5601C95.1026 29.5601 95.647 30.4129 95.7922 30.9936C95.901 31.3565 96.0825 31.4835 96.6995 31.6106C97.5886 31.792 97.9152 31.6106 98.0786 30.8121C98.1511 30.5218 98.26 30.2859 98.3507 30.2859C98.5322 30.2859 98.7137 30.9392 98.7137 31.6106C98.7137 32.0279 98.8407 32.1731 99.3851 32.3908C100.002 32.663 100.075 32.663 100.292 32.3364C100.438 32.1549 100.583 31.8283 100.655 31.5924C100.71 31.3747 100.819 31.1932 100.891 31.1932C101.073 31.1932 101.49 33.0078 101.345 33.153C101.2 33.2981 101.635 33.7336 101.944 33.7336C102.089 33.7336 102.488 33.4433 102.815 33.0985C103.178 32.7175 103.45 32.536 103.522 32.663C103.686 32.9171 103.468 34.0421 103.141 34.6772C102.996 34.9676 102.924 35.276 102.996 35.3849C103.051 35.4938 102.978 35.7115 102.833 35.8749C102.343 36.4374 102.016 37.2721 101.798 38.4516C101.544 39.867 101.254 40.4295 100.528 41.0646C99.8387 41.6453 99.3306 41.7179 99.621 41.1916C99.7117 40.992 99.8024 40.3569 99.8024 39.7762C99.8024 37.4536 98.133 35.5482 94.5582 33.7336C92.7436 32.8263 91.9997 32.6086 90.7476 32.6267C89.6407 32.6449 87.5539 32.2094 87.191 31.9009C86.9732 31.6831 85.703 31.7013 84.8864 31.919C84.0517 32.1549 83.8884 32.7175 84.2876 34.0058C84.8139 35.7841 84.5235 36.7459 83.3259 37.1995C81.8379 37.7802 79.3338 38.3064 78.4628 38.2338C77.2107 38.125 76.757 37.7983 75.6864 36.2015C74.7247 34.8042 74.1622 34.2962 73.1641 33.9514C72.5835 33.7518 72.5835 33.7518 72.6923 34.2417C72.8738 35.0583 73.8174 36.9999 74.3799 37.6895C74.6703 38.0705 76.0856 39.5041 77.5192 40.9013C82.6182 45.8733 86.1385 49.4662 88.0257 51.6982C93.6691 58.3396 96.8446 63.9648 97.8971 69.2816C98.6048 72.7112 97.7519 79.6792 95.9918 84.9234C94.8667 88.3349 92.7618 92.1092 90.9109 94.069C90.6206 94.3593 90.1306 95.1033 89.8221 95.684C88.0801 99.041 84.8501 102.289 81.4024 104.231C77.0655 106.644 72.6198 107.842 63.1476 109.13C54.002 110.364 51.1168 110.89 47.8686 111.961C45.8 112.65 43.0418 114.048 41.826 115.028C41.318 115.427 40.7736 115.808 40.6103 115.862C40.2836 115.989 39.7574 117.405 39.2675 119.473C38.8864 121.143 38.9045 124.645 39.2856 126.55C39.7211 128.673 40.5377 130.978 41.6627 133.301C42.6063 135.206 44.5842 138.381 45.5823 139.579L45.9996 140.087L46.7436 139.761L47.4694 139.452L46.2537 137.456C45.5823 136.349 45.056 135.406 45.1105 135.333C45.1468 135.26 46.0541 134.716 47.1428 134.117C54.2923 130.143 56.9235 129.29 65.5065 128.147C68.9906 127.675 75.5231 127.693 77.6643 128.165C82.3279 129.181 85.9208 131.087 89.0963 134.262C92.6711 137.801 94.903 142.283 95.7559 147.6C96.1732 150.249 96.0099 154.441 95.393 156.818C94.5582 159.957 93.0521 162.715 90.9472 164.965C90.421 165.528 89.9855 166.036 89.9855 166.09C90.0399 166.399 88.8241 168.449 87.935 169.593C85.1042 173.222 78.9527 176.397 72.1298 177.74C69.7164 178.23 64.3452 178.194 61.5144 177.668C57.6493 176.96 53.8387 175.671 49.7195 173.712C44.2395 171.081 40.4288 168.631 36.1101 164.965C35.1665 164.149 34.0959 163.332 33.7148 163.114L33.0615 162.752L32.8075 164.058C32.6623 164.893 32.5716 166.689 32.5897 168.921C32.5897 171.843 32.6623 172.786 32.989 174.365C33.6966 177.704 34.4406 179.718 36.4185 183.583C38.5779 187.793 39.213 189.408 39.7574 192.021C40.2655 194.416 40.3199 198.227 39.8481 200.55C39.086 204.433 37.1625 208.407 34.5314 211.51C34.0959 212.036 33.5152 212.871 33.243 213.379C32.4264 214.885 30.6844 217.135 29.3053 218.442C27.8899 219.784 25.7669 221.327 25.7669 221C25.7669 220.891 25.5128 221.091 25.2225 221.436C24.914 221.78 24.2426 222.325 23.7164 222.651C23.2083 222.996 22.7365 223.323 22.7183 223.395C22.682 223.486 22.555 223.486 22.4643 223.432C22.3373 223.359 22.3191 223.395 22.3917 223.522C22.5913 223.831 21.3211 226.299 20.4682 227.26L19.7424 228.077H14.7341H9.70767L10.7057 227.406C11.2501 227.043 12.1211 226.408 12.6473 225.972L13.5909 225.21L11.3771 225.101C10.1613 225.029 8.2197 224.847 7.07651 224.702C5.0623 224.43 0.543957 223.468 0.0177234 223.178C-0.127444 223.105 0.634687 222.978 1.74159 222.905C10.7057 222.361 15.9862 220.365 17.7826 216.808C18.073 216.246 18.5629 215.574 18.8714 215.32C20.1235 214.25 23.1175 214.54 23.5712 215.774C23.6982 216.119 23.8252 216.046 25.1499 214.885C26.7467 213.47 28.1984 211.927 29.2146 210.566C29.8316 209.75 29.9041 209.514 29.9949 208.298C30.1219 206.483 29.8497 203.943 29.2872 201.838C28.6702 199.425 27.5452 196.684 25.3314 192.148C22.3373 186.015 21.1396 182.64 20.196 177.831C19.7787 175.635 19.7242 174.909 19.7061 171.371C19.688 167.088 19.9057 165.365 20.813 162.207C21.3029 160.483 22.2647 158.269 22.5913 158.07C22.7183 157.997 23.1175 156.963 23.4805 155.765C23.8434 154.568 24.2607 153.261 24.3878 152.862C24.6781 152.027 24.6962 152.045 22.8091 148.779C21.5026 146.511 20.0872 143.571 19.0528 140.976C17.583 137.256 17.0024 136.512 14.8793 135.442C12.9921 134.498 12.8469 134.081 13.8994 132.339C15.0244 130.488 15.2785 129.907 15.0244 129.835C14.8974 129.798 14.2079 129.671 13.5002 129.544C11.5949 129.236 10.0343 128.728 10.4517 128.565C10.6513 128.492 11.359 128.22 12.0666 127.966C12.7562 127.712 13.8087 127.258 14.3893 126.95C15.4418 126.405 15.4418 126.387 15.3329 125.752C15.1152 124.554 14.3712 123.23 13.2643 122.032C11.74 120.381 11.74 120.054 13.3913 118.276C14.7341 116.806 15.2422 116.153 15.2422 115.826C15.2422 115.717 14.8611 115.518 14.4075 115.409C12.9739 115.046 9.25402 113.195 9.25402 112.85C9.25402 112.796 10.2883 112.65 11.5586 112.542C12.8651 112.433 14.4256 112.161 15.1333 111.943L16.3672 111.562L16.2402 110.727C16.1676 110.273 15.7321 109.166 15.2785 108.277C14.4619 106.735 14.4438 106.644 14.716 106.172C14.8974 105.846 15.5144 105.41 16.5306 104.92C18.1093 104.14 19.7787 102.852 19.7787 102.416C19.7787 102.289 19.5065 102.126 19.1799 102.071C17.5286 101.763 15.1152 100.093 13.4095 98.1156C12.8106 97.4079 12.357 96.809 12.3933 96.7546C12.4477 96.7183 13.5365 96.9361 14.8248 97.2627C17.3834 97.9341 19.9964 98.0793 21.2667 97.6438C22.0288 97.3716 22.1195 97.1175 21.9018 95.9562C21.6477 94.686 21.9925 94.1053 23.0087 93.9783C23.7345 93.8875 23.8797 93.7787 24.9321 92.4722L26.039 91.0749L25.1317 90.095C23.6075 88.48 22.5732 85.867 22.2465 82.7641L22.1558 81.8205L24.3696 84.0706C26.5108 86.2299 27.6177 87.0647 28.9968 87.5365C29.6138 87.7542 29.6864 87.7361 30.7751 86.9921C32.3901 85.8852 33.9688 85.0505 35.7471 84.3428C36.6 84.0161 37.3077 83.7258 37.344 83.7077C37.3621 83.7077 37.2533 83.1633 37.0899 82.5282C36.7089 81.022 36.8178 78.6631 37.3803 76.5581C37.598 75.7053 37.8521 74.9431 37.9247 74.8706C37.9972 74.7798 38.3239 75.5057 38.6323 76.4856C39.3219 78.6268 40.4469 80.9495 41.2454 81.8749L41.826 82.5645L43.6406 82.2741C44.6387 82.129 46.6529 81.9475 48.1045 81.8749L50.772 81.766L50.8809 80.5684C50.9535 79.9151 51.1349 78.8808 51.2801 78.282C51.6249 76.9573 52.6047 74.5621 52.8044 74.5621C52.8769 74.5621 53.004 74.9431 53.0765 75.4149C53.2943 76.9573 54.0383 79.6067 54.5464 80.7499L55.0545 81.8749L59.101 81.7842C61.3148 81.7479 63.1839 81.6753 63.2201 81.6209C63.2564 81.5846 63.1839 81.0946 63.0387 80.5503C62.7121 79.2619 62.7121 76.8848 63.075 75.179C63.5286 72.9108 63.5468 72.8927 64.1274 74.4169C65.0166 76.6852 66.2505 78.9171 67.2123 79.9696L68.1377 80.9495L69.2265 80.7317C71.1136 80.3506 72.4927 79.8426 73.2912 79.28C73.9626 78.7901 74.017 78.6812 73.8355 78.3546C73.4182 77.5562 73.7811 76.8122 75.1239 75.7416C76.3941 74.7254 77.0655 73.9451 77.4466 73.0741C77.6462 72.6023 77.628 72.5842 76.2852 71.9491C74.7791 71.2414 73.8355 70.6063 72.4383 69.4086L71.4766 68.5739L74.3981 68.7009L77.3014 68.8098L76.9566 68.0114C76.1219 66.1242 74.9243 65.2713 72.7831 65.0354C71.9121 64.9266 71.5129 64.7995 71.1862 64.4729C70.7689 64.0556 70.7507 63.9467 70.8777 62.8216L71.0048 61.624L70.0793 61.7147L69.1539 61.8055L69.6801 61.1341C69.9704 60.7711 70.3334 60.3538 70.4967 60.2268C70.8959 59.9001 70.8415 59.5917 70.1882 58.3759C69.1902 56.4887 67.7022 55.3818 65.3432 54.783C64.9077 54.6741 64.3452 54.3656 64.0911 54.1116C63.6738 53.6942 63.6556 53.5853 63.7645 52.4603C63.819 51.7889 63.9097 51.063 63.946 50.8271C64.0367 50.4461 63.9823 50.4279 62.8391 50.4279H61.6414L62.7121 49.4662C63.9278 48.3411 63.9278 48.8311 62.7121 45.4378C62.3673 44.4398 61.8955 42.8066 61.6777 41.8086C61.0789 39.0323 60.6071 38.3064 58.847 37.4899C57.5405 36.891 57.3408 36.6914 57.3408 35.9656C57.3408 35.3305 57.5405 34.8224 58.0485 34.1691C58.2119 33.9695 57.7945 34.3687 57.1231 35.0583C56.4517 35.7478 55.4355 36.9636 54.8548 37.762C54.2742 38.5423 53.7842 39.123 53.7479 39.0323C53.5846 38.506 56.4335 32.9897 58.4115 30.05L59.6635 28.181L59.0103 27.7818C58.6292 27.5459 57.8852 27.1466 57.3408 26.8745C56.7965 26.6023 56.3247 26.2938 56.2884 26.1668C56.2702 26.0579 56.9416 25.6042 57.8126 25.1869C59.5728 24.2977 60.3531 23.5356 60.5345 22.5376C60.6071 22.1565 60.7341 21.7936 60.8249 21.7391C60.9337 21.6666 60.4075 21.5758 59.6817 21.5033C56.9961 21.2492 52.9677 21.9932 49.8284 23.2816C48.9393 23.6445 48.1771 23.8985 48.1045 23.8259C47.9049 23.6263 50.9716 20.8863 52.2418 20.1242C55.5625 18.1462 58.1393 17.5293 63.0024 17.5111C64.8533 17.493 66.305 17.4386 66.1961 17.3841C66.1054 17.3297 66.0328 17.2027 66.0509 17.1119C66.1779 16.2228 63.5105 14.8437 59.8813 13.9364C57.2501 13.2831 51.5341 13.265 48.9937 13.9001C48.0683 14.1178 48.903 13.6279 50.2639 13.138C52.4051 12.3758 55.0182 11.8133 57.4497 11.5774C61.333 11.1963 65.6698 11.8496 69.0087 13.3194C69.8253 13.6823 70.6056 14.0271 70.7144 14.0815C71.0411 14.2086 71.0048 13.5372 70.6418 12.3395C70.1338 10.7608 68.7728 9.41803 66.6134 8.38371C64.3815 7.3131 63.5468 6.75057 61.8955 5.17187C60.1898 3.53874 57.3771 -0.0360219 57.8126 0.000270043C57.9034 0.000270043 58.5385 0.453919 59.2462 0.998299ZM88.6064 18.9265C89.1326 20.0697 89.931 20.6322 90.548 20.3056C90.7476 20.1967 90.9109 20.0334 90.9109 19.9427C90.9109 19.852 90.4391 19.4346 89.8584 18.9991C89.2959 18.5817 88.7152 18.0737 88.5701 17.8741C88.0983 17.2389 88.1346 17.8922 88.6064 18.9265ZM57.7038 145.495C56.0162 145.876 53.2217 146.837 52.6955 147.219C52.387 147.454 52.4596 147.581 53.7117 148.979C55.4537 150.902 58.847 153.987 60.4982 155.166C64.1274 157.725 68.0833 158.759 72.1117 158.233C74.0714 157.961 76.2308 157.308 77.2288 156.654L77.9728 156.183L77.7188 155.058C77.5918 154.459 77.12 153.207 76.6663 152.299C75.3961 149.705 73.2186 147.799 70.043 146.547C68.5914 145.985 66.3231 145.386 64.6718 145.168C62.9298 144.914 59.5547 145.095 57.7038 145.495ZM25.4039 218.641C25.2588 218.732 25.1862 218.841 25.2225 218.895C25.2769 218.931 25.4765 218.859 25.658 218.714C26.0572 218.442 25.8394 218.369 25.4039 218.641Z" fill="white"/>
</svg>
