<svg width="96" height="219" viewBox="0 0 96 219" fill="none" xmlns="http://www.w3.org/2000/svg">
<path d="M42.8446 0.958553C40.256 3.1191 37.2115 4.86148 34.2322 5.88949C31.0738 6.98719 28.3223 8.85153 24.5778 12.4757C23.1126 13.9044 23.0637 13.9219 22.9661 13.4863C22.6405 12.0749 23.4545 9.82727 25.0988 7.5099C25.6035 6.79553 25.9942 6.20312 25.9617 6.16827C25.8803 6.08115 20.6705 10.0189 18.9936 11.4477C18.147 12.1621 16.4701 13.7825 15.2654 15.037C13.0675 17.3543 12.3186 18.4695 12.3186 19.5149C12.3186 20.1247 11.7651 20.8391 11.065 21.1527C10.7557 21.2921 9.42069 21.7277 8.10197 22.1285C0.743182 24.3239 -0.412733 25.1951 0.108243 28.1571C0.319889 29.2897 0.417572 29.429 0.759463 28.9934C0.922268 28.7669 1.01995 28.8018 1.4758 29.1503C1.75257 29.3768 2.14331 29.6556 2.33867 29.7601C2.69684 29.9518 2.69684 29.9343 2.27355 28.9586L1.85026 27.9829L2.32239 27.5647C2.89221 27.0768 2.98989 27.0768 3.10385 27.4776C3.16898 27.6692 3.3969 27.9829 3.60855 28.2094L4.01556 28.6101V27.5647V26.5018L4.68306 26.2231C5.43197 25.9094 5.64361 25.9617 5.64361 26.5193C5.64361 26.9026 5.9041 27.4776 6.00178 27.3382C6.03434 27.2859 6.16459 26.9026 6.29483 26.467C6.53904 25.6829 6.53904 25.6829 7.36935 25.6307L8.19965 25.5784L8.50898 26.4147C8.72063 27.0071 8.81831 27.1465 8.86715 26.9026C8.89971 26.7109 8.9974 26.2928 9.09508 25.9791C9.2416 25.439 9.29044 25.4041 9.92538 25.4564C10.4789 25.4913 10.6254 25.5784 10.658 25.8746C10.6906 26.0837 10.9348 26.5018 11.1953 26.8329L11.6837 27.4253L11.586 26.798C11.4558 25.9094 11.8465 25.4564 12.8559 25.317C13.5559 25.2125 13.6211 25.2299 13.6211 25.561C13.6211 26.014 13.9467 26.8155 14.142 26.8155C14.2072 26.8155 14.2723 26.589 14.2723 26.2928C14.2723 25.4564 14.5979 24.9337 15.3956 24.5155C15.8026 24.3064 16.6492 23.5921 17.2679 22.93L18.3912 21.7103L18.3098 22.4247C18.2284 22.9648 17.9191 23.5224 16.9423 24.8466C15.5747 26.6761 15.3305 26.9897 15.184 26.9897C15.0863 26.9897 14.4351 27.5473 13.9141 28.07C13.6373 28.3662 13.6211 28.3662 13.6211 28.0351C13.6211 27.495 13.3117 27.617 13.0187 28.2791C12.8722 28.6275 12.5465 28.976 12.2861 29.098C11.9279 29.2548 11.8628 29.3419 12.0256 29.4465C12.1884 29.5684 12.1884 29.6033 11.993 29.6033C11.8628 29.6033 11.586 29.6556 11.3906 29.7078C11.0487 29.8124 11.0162 29.7601 11.0162 29.098C11.0162 28.7147 10.9511 28.3836 10.8697 28.3836C10.6743 28.3836 10.1859 29.2025 10.0556 29.7601C9.95795 30.1086 9.79514 30.2305 9.2416 30.3525C8.44386 30.5267 8.15081 30.3525 8.00428 29.5859C7.93916 29.3071 7.84148 29.0806 7.76008 29.0806C7.59727 29.0806 7.43447 29.7078 7.43447 30.3525C7.43447 30.7533 7.3205 30.8926 6.83209 31.1017C6.27855 31.3631 6.21343 31.3631 6.01806 31.0495C5.88782 30.8752 5.75758 30.5616 5.69245 30.3351C5.64361 30.126 5.54593 29.9518 5.48081 29.9518C5.318 29.9518 4.94355 31.6941 5.07379 31.8335C5.20404 31.9729 4.81331 32.3911 4.53654 32.3911C4.40629 32.3911 4.04812 32.1123 3.75507 31.7813C3.42946 31.4154 3.18526 31.2411 3.12014 31.3631C2.97361 31.607 3.16898 32.6873 3.46203 33.2971C3.59227 33.5759 3.65739 33.8721 3.59227 33.9767C3.54343 34.0812 3.60855 34.2903 3.73879 34.4471C4.17837 34.9872 4.47142 35.7887 4.66678 36.9213C4.89471 38.2803 5.1552 38.8205 5.80642 39.4303C6.42508 39.9879 6.88093 40.0576 6.62044 39.5523C6.53904 39.3606 6.45764 38.7508 6.45764 38.1932C6.45764 35.963 7.95544 34.1335 11.1627 32.3911C12.7908 31.5199 13.4583 31.3108 14.5816 31.3282C15.5747 31.3457 17.447 30.9275 17.7726 30.6313C17.968 30.4222 19.1076 30.4396 19.8402 30.6487C20.5891 30.8752 20.7356 31.4154 20.3775 32.6524C19.9053 34.36 20.1658 35.2834 21.2403 35.719C22.5753 36.2766 24.822 36.7819 25.6035 36.7122C26.7269 36.6076 27.1339 36.294 28.0944 34.7607C28.9573 33.4191 29.462 32.9312 30.3574 32.6002C30.8784 32.4085 30.8784 32.4085 30.7807 32.879C30.6179 33.663 29.7713 35.5274 29.2666 36.1895C29.0061 36.5554 27.7363 37.9319 26.4501 39.2735C21.8753 44.0476 18.7169 47.4975 17.0237 49.6407C11.9604 56.0178 9.11136 61.4191 8.16709 66.5243C7.53215 69.8174 8.29733 76.5082 9.87654 81.5436C10.8859 84.8193 12.7745 88.4435 14.4351 90.3252C14.6956 90.604 15.1351 91.3184 15.4119 91.8759C16.9748 95.0994 19.8728 98.2182 22.9661 100.083C26.8571 102.4 30.8458 103.55 39.3442 104.787C47.5496 105.972 50.1382 106.477 53.0524 107.505C54.9084 108.167 57.383 109.509 58.4738 110.45C58.9297 110.833 59.4181 111.199 59.5646 111.251C59.8577 111.373 60.3298 112.732 60.7694 114.719C61.1113 116.322 61.095 119.684 60.7531 121.514C60.3624 123.552 59.6298 125.765 58.6204 127.995C57.7738 129.825 55.9992 132.874 55.1038 134.024L54.7293 134.512L54.0618 134.198L53.4106 133.902L54.5014 131.986C55.1038 130.923 55.5759 130.017 55.5271 129.947C55.4945 129.877 54.6805 129.355 53.7037 128.78C47.2891 124.964 44.9285 124.145 37.2278 123.047C34.1019 122.594 28.2409 122.612 26.3198 123.065C22.1358 124.04 18.9122 125.87 16.0631 128.919C12.8559 132.317 10.8534 136.62 10.0882 141.725C9.71374 144.269 9.86026 148.294 10.4138 150.577C11.1627 153.591 12.514 156.239 14.4025 158.4C14.8747 158.94 15.2654 159.428 15.2654 159.48C15.2165 159.776 16.3073 161.745 17.1051 162.843C19.6448 166.328 25.1639 169.377 31.2854 170.666C33.4507 171.137 38.2697 171.102 40.8095 170.597C44.2772 169.917 47.6961 168.68 51.3918 166.798C56.3085 164.272 59.7274 161.92 63.6022 158.4C64.4488 157.616 65.4093 156.832 65.7512 156.623L66.3373 156.274L66.5652 157.529C66.6955 158.33 66.7769 160.055 66.7606 162.198C66.7606 165.004 66.6955 165.91 66.4024 167.426C65.7675 170.632 65.1 172.566 63.3254 176.277C61.388 180.319 60.8182 181.87 60.3298 184.379C59.874 186.679 59.8251 190.338 60.2484 192.568C60.9322 196.297 62.6579 200.113 65.0186 203.092C65.4093 203.597 65.9303 204.399 66.1745 204.887C66.9071 206.333 68.4701 208.493 69.7074 209.748C70.9773 211.037 72.8821 212.518 72.8821 212.205C72.8821 212.1 73.11 212.292 73.3705 212.623C73.6473 212.954 74.2496 213.477 74.7218 213.79C75.1776 214.121 75.6009 214.435 75.6172 214.505C75.6498 214.592 75.7637 214.592 75.8451 214.54C75.9591 214.47 75.9754 214.505 75.9102 214.627C75.7312 214.923 76.8708 217.292 77.636 218.216L78.2872 219H82.7806H87.2903L86.3949 218.355C85.9065 218.007 85.125 217.397 84.6529 216.979L83.8063 216.247L85.7925 216.142C86.8833 216.073 88.6253 215.899 89.651 215.759C91.4581 215.498 95.512 214.574 95.9841 214.296C96.1143 214.226 95.4306 214.104 94.4375 214.034C86.3949 213.512 81.6573 211.595 80.0455 208.18C79.785 207.64 79.3454 206.995 79.0687 206.751C77.9453 205.723 75.259 206.002 74.852 207.187C74.7381 207.518 74.6241 207.448 73.4356 206.333C72.0029 204.974 70.7005 203.493 69.7888 202.186C69.2352 201.402 69.1701 201.175 69.0887 200.008C68.9748 198.266 69.219 195.826 69.7237 193.805C70.2772 191.488 71.2866 188.857 73.2728 184.501C75.9591 178.612 77.0336 175.371 77.8802 170.753C78.2546 168.645 78.3035 167.948 78.3198 164.551C78.336 160.439 78.1407 158.783 77.3267 155.752C76.8871 154.096 76.0242 151.971 75.7312 151.779C75.6172 151.709 75.259 150.716 74.9334 149.566C74.6078 148.416 74.2334 147.162 74.1194 146.778C73.8589 145.977 73.8426 145.994 75.5358 142.858C76.708 140.68 77.9779 137.857 78.9059 135.366C80.2246 131.794 80.7456 131.079 82.6504 130.051C84.3435 129.145 84.4738 128.745 83.5295 127.072C82.5201 125.295 82.2922 124.737 82.5201 124.668C82.6341 124.633 83.2528 124.511 83.8877 124.389C85.5971 124.093 86.9973 123.605 86.6228 123.448C86.4437 123.378 85.8088 123.117 85.1739 122.873C84.5552 122.629 83.6109 122.193 83.0899 121.897C82.1457 121.374 82.1457 121.357 82.2434 120.747C82.4387 119.597 83.1062 118.325 84.0993 117.175C85.4669 115.59 85.4669 115.276 83.9854 113.569C82.7806 112.157 82.3248 111.53 82.3248 111.216C82.3248 111.112 82.6667 110.92 83.0737 110.816C84.3598 110.467 87.6973 108.69 87.6973 108.359C87.6973 108.307 86.7693 108.167 85.6297 108.063C84.4575 107.958 83.0574 107.697 82.4224 107.488L81.3154 107.122L81.4293 106.32C81.4945 105.885 81.8852 104.822 82.2922 103.968C83.0248 102.487 83.0411 102.4 82.7969 101.947C82.6341 101.633 82.0806 101.215 81.1689 100.745C79.7524 99.9954 78.2546 98.7583 78.2546 98.3402C78.2546 98.2182 78.4988 98.0614 78.7919 98.0091C80.2734 97.7129 82.4387 96.1099 83.9691 94.2107C84.5064 93.5312 84.9134 92.9562 84.8808 92.904C84.832 92.8691 83.8551 93.0782 82.6992 93.3918C80.4037 94.0365 78.0593 94.1759 76.9196 93.7577C76.2359 93.4964 76.1545 93.2524 76.3498 92.1373C76.5777 90.9176 76.2684 90.3601 75.3567 90.2381C74.7055 90.151 74.5752 90.0464 73.631 88.7919L72.6379 87.4503L73.4519 86.5094C74.8195 84.9587 75.7474 82.4497 76.0405 79.4702L76.1219 78.5642L74.1357 80.7247C72.2146 82.7981 71.2215 83.5996 69.9841 84.0527C69.4306 84.2617 69.3655 84.2443 68.3887 83.5299C66.9397 82.4671 65.5233 81.6656 63.9278 80.9861C63.1626 80.6724 62.5277 80.3937 62.4951 80.3762C62.4788 80.3762 62.5765 79.8535 62.723 79.2437C63.0649 77.7975 62.9673 75.5324 62.4626 73.5113C62.2672 72.6923 62.0393 71.9605 61.9741 71.8908C61.909 71.8037 61.616 72.5007 61.3392 73.4416C60.7205 75.4976 59.7112 77.7278 58.9948 78.6164L58.4738 79.2785L56.8458 78.9998C55.9504 78.8604 54.1432 78.6861 52.8408 78.6164L50.4476 78.5119L50.3499 77.3619C50.2847 76.7347 50.1219 75.7415 49.9917 75.1665C49.6824 73.8946 48.8032 71.5946 48.6241 71.5946C48.559 71.5946 48.445 71.9605 48.3799 72.4136C48.1846 73.8946 47.5171 76.4385 47.0612 77.5362L46.6054 78.6164L42.9748 78.5293C40.9886 78.4945 39.3117 78.4248 39.2791 78.3725C39.2466 78.3377 39.3117 77.8672 39.4419 77.3445C39.735 76.1074 39.735 73.8249 39.4094 72.1871C39.0024 70.0091 38.9861 69.9917 38.4651 71.4553C37.6674 73.6332 36.5603 75.7764 35.6974 76.7869L34.8671 77.7278L33.8903 77.5187C32.1971 77.1528 30.9598 76.665 30.2434 76.1248C29.6411 75.6544 29.5922 75.5498 29.755 75.2362C30.1295 74.4696 29.8039 73.7552 28.5991 72.7272C27.4595 71.7515 26.8571 71.0022 26.5152 70.1659C26.3361 69.7129 26.3524 69.6954 27.5572 69.0856C28.9084 68.4061 29.755 67.7963 31.0086 66.6463L31.8715 65.8448L29.2503 65.9668L26.6455 66.0713L26.9548 65.3047C27.7037 63.4926 28.7782 62.6737 30.6993 62.4471C31.4808 62.3426 31.8389 62.2206 32.132 61.907C32.5064 61.5063 32.5227 61.4017 32.4088 60.3214L32.2948 59.1715L33.1251 59.2586L33.9554 59.3457L33.4833 58.701C33.2228 58.3526 32.8972 57.9518 32.7506 57.8298C32.3925 57.5162 32.4413 57.22 33.0274 56.0526C33.9228 54.2405 35.2578 53.1777 37.3743 52.6027C37.765 52.4982 38.2697 52.202 38.4977 51.958C38.8721 51.5573 38.8884 51.4527 38.7907 50.3725C38.7419 49.7278 38.6605 49.0308 38.6279 48.8043C38.5465 48.4384 38.5953 48.421 39.621 48.421H40.6955L39.735 47.4975C38.6442 46.4172 38.6442 46.8877 39.735 43.6294C40.0443 42.6711 40.4676 41.103 40.663 40.1447C41.2002 37.4788 41.6235 36.7819 43.2027 35.9978C44.3749 35.4228 44.554 35.2312 44.554 34.5342C44.554 33.9244 44.3749 33.4365 43.9191 32.8093C43.7725 32.6176 44.147 33.0009 44.7494 33.663C45.3518 34.3251 46.2635 35.4925 46.7844 36.2592C47.3054 37.0084 47.745 37.566 47.7775 37.4788C47.9241 36.9735 45.368 31.6767 43.5935 28.8541L42.4701 27.0594L43.0562 26.6761C43.3981 26.4496 44.0656 26.0663 44.554 25.8049C45.0424 25.5435 45.4657 25.2473 45.4983 25.1254C45.5146 25.0208 44.9122 24.5852 44.1307 24.1845C42.5515 23.3307 41.8514 22.5989 41.6886 21.6406C41.6235 21.2747 41.5096 20.9262 41.4282 20.874C41.3305 20.8043 41.8026 20.7171 42.4538 20.6474C44.8633 20.4035 48.4776 21.1179 51.2941 22.355C52.0919 22.7035 52.7757 22.9474 52.8408 22.8777C53.0199 22.686 50.2685 20.055 49.1288 19.3232C46.1495 17.424 43.8377 16.8316 39.4745 16.8142C37.8139 16.7968 36.5114 16.7445 36.6091 16.6922C36.6905 16.64 36.7556 16.518 36.7394 16.4309C36.6254 15.5771 39.0186 14.2529 42.2747 13.3817C44.6354 12.7545 49.7638 12.737 52.043 13.3469C52.8733 13.556 52.1244 13.0855 50.9034 12.6151C48.9823 11.8833 46.6379 11.3431 44.4563 11.1166C40.9723 10.7507 37.0813 11.378 34.0856 12.7893C33.353 13.1378 32.653 13.4688 32.5553 13.5211C32.2622 13.6431 32.2948 12.9984 32.6204 11.8484C33.0763 10.3326 34.2973 9.0432 36.2347 8.05004C38.2372 7.02204 38.9861 6.4819 40.4676 4.96603C41.998 3.39788 44.5214 -0.0346039 44.1307 0.000243671C44.0493 0.000243671 43.4795 0.435839 42.8446 0.958553ZM16.5027 18.1733C16.0306 19.271 15.3142 19.8111 14.7607 19.4975C14.5816 19.3929 14.4351 19.2361 14.4351 19.149C14.4351 19.0619 14.8584 18.6611 15.3794 18.243C15.884 17.8422 16.405 17.3543 16.5353 17.1627C16.9586 16.5529 16.926 17.1801 16.5027 18.1733ZM44.2284 139.704C45.7425 140.07 48.2497 140.994 48.7218 141.36C48.9986 141.586 48.9335 141.708 47.8101 143.05C46.2472 144.897 43.2027 147.859 41.7212 148.991C38.4651 151.448 34.916 152.441 31.3017 151.936C29.5434 151.674 27.606 151.047 26.7106 150.42L26.0431 149.967L26.271 148.887C26.385 148.312 26.8083 147.109 27.2153 146.238C28.3549 143.747 30.3086 141.917 33.1577 140.715C34.4601 140.175 36.4952 139.6 37.9767 139.391C39.5396 139.147 42.5678 139.321 44.2284 139.704ZM73.2077 209.94C73.3379 210.027 73.4031 210.131 73.3705 210.184C73.3216 210.218 73.1426 210.149 72.9798 210.009C72.6216 209.748 72.817 209.678 73.2077 209.94Z" fill="white"/>
</svg>
