<svg width="107" height="129" viewBox="0 0 107 129" fill="none" xmlns="http://www.w3.org/2000/svg">
<path d="M90.1686 0.246983C90.1079 0.488858 90.2999 0.781123 90.5323 0.791202C90.7445 0.80128 91.4113 2.01065 91.5629 2.67581C91.7043 3.33089 91.7043 3.47198 91.573 4.17745C91.1891 6.16284 90.896 6.25355 89.6937 4.7519C88.6328 3.42159 88.1983 3.06886 86.8646 2.41378C85.7936 1.88972 85.4905 1.78894 84.7529 1.69823C83.6111 1.56722 82.9039 1.56722 82.7523 1.71839C82.4896 1.98042 82.6513 2.16183 83.5909 2.65565C84.6215 3.1898 84.9449 3.50222 85.3995 4.39917C85.6521 4.893 85.6622 4.9837 85.6622 6.56597C85.6622 7.7048 85.6218 8.24901 85.541 8.32964C85.3692 8.50097 84.7226 8.48081 83.8334 8.26917C83.1565 8.10792 82.9342 7.98698 82.0653 7.33191C80.3072 6.02175 80.0344 5.68917 79.9131 4.68136C79.8828 4.40925 79.8121 4.16737 79.7515 4.14722C79.5797 4.09683 79.1857 4.8023 78.8825 5.71941C78.5188 6.78769 78.4986 7.76526 78.8017 9.09558C79.2059 10.8189 80.6507 12.6834 82.4492 13.792C83.4293 14.3866 83.601 14.4471 85.2379 14.8603L86.9858 15.3037H88.9258C90.8455 15.3037 91.2699 15.3642 90.9971 15.5758C90.9264 15.6262 90.2292 15.9386 89.4512 16.251C86.6625 17.3899 82.4593 20.0707 80.2466 22.1165C78.9533 23.3158 78.054 24.5655 76.6496 27.0951C75.9423 28.375 75.6089 29.1208 74.8713 31.1768C74.3661 32.5575 73.6386 34.7646 73.2345 36.0646C72.123 39.7028 70.5468 43.9155 69.4051 46.2738C68.8696 47.3925 68.2027 48.8135 67.94 49.4282C67.4753 50.5066 67.4247 50.5771 66.5861 51.3431C64.6462 53.1269 63.2114 53.9835 61.7666 54.2456C58.594 54.81 57.0683 54.8503 55.391 54.3968C53.7946 53.9735 53.441 53.7215 52.855 52.5424C52.6024 52.0385 52.0163 50.6376 51.5516 49.4182C51.0969 48.1987 50.5917 46.9289 50.4502 46.5963C50.2987 46.2637 49.8642 45.0644 49.4904 43.9256C48.9852 42.3836 48.2981 40.6905 46.7623 37.2236L44.7112 32.5877L43.1047 30.2798C39.9725 25.8051 36.5372 22.439 32.8695 20.242L31.0508 19.1535L28.6764 18.5992C26.4333 18.0651 26.1706 18.0248 23.8771 17.8635L21.4521 17.6821L18.522 18.1155L15.5919 18.5489L13.6216 19.3753L11.6514 20.2017L9.58007 21.7739C7.73106 23.1848 7.3168 23.5577 5.78102 25.2004C4.23512 26.8633 3.99263 27.1757 3.33588 28.3146C2.22445 30.2899 0.951364 33.4443 0.456275 35.46L0.0521197 37.1228L0.0117042 40.1463C-0.0186075 42.0813 0.0117042 43.3713 0.0824313 43.724C0.143055 44.0264 0.254197 44.9032 0.335028 45.659L0.476482 47.0397L1.21407 48.6623C1.8304 50.0228 2.083 50.436 2.74985 51.2625C3.37629 52.0385 3.70972 52.3509 4.35637 52.7641C5.2253 53.3083 5.93257 53.52 6.20538 53.2882C6.47818 53.0664 6.35694 52.5827 5.70018 51.3431C5.14447 50.305 4.97271 49.8515 4.54834 48.2592C4.06336 46.4753 4.04315 46.304 3.9219 44.3186L3.80066 42.2425L4.12398 40.3378C4.54834 37.788 5.29603 35.2181 5.82143 34.4622C6.36704 33.6862 6.47818 33.6761 6.40746 34.4118C6.36704 34.7444 6.31652 36.4073 6.28621 38.1307L6.23569 41.2549L6.73078 43.6736L7.21577 46.0924L8.40802 47.856C9.05467 48.8235 9.67101 49.7306 9.78215 49.8717C9.94381 50.0833 9.99433 50.426 10.0853 52.24C10.1964 54.2153 10.2368 54.4673 10.6511 56.0899C10.9744 57.3295 11.328 58.3675 11.9141 59.7684C12.7224 61.6832 12.7426 61.7235 13.46 62.4492C14.1167 63.1043 14.2177 63.1849 14.4703 63.1143C14.9452 63.0035 14.9755 62.7314 14.6825 61.5623C14.531 60.9778 14.2582 59.7281 14.0561 58.7908C13.7328 57.1985 13.7025 56.876 13.6115 54.2758C13.5206 51.5749 13.5307 51.4136 13.7732 49.529C14.0258 47.5739 14.2279 46.7978 14.4602 46.8785C14.531 46.8986 14.8745 47.4025 15.2382 48.0072L15.8849 49.0957L15.41 50.4764L14.925 51.8571L15.5919 53.6107C15.9556 54.5782 16.3598 55.6162 16.4709 55.9286L16.6932 56.493L16.4608 57.2589L16.2385 58.0249L16.5416 59.4862C16.7134 60.2925 16.966 61.1894 17.0974 61.4817C17.2893 61.8949 17.4106 62.4794 17.6127 63.9911C17.8652 65.9362 17.8754 66.0068 18.5119 67.589C19.0171 68.8689 19.2596 69.3527 19.6839 69.8667C20.0679 70.3605 20.27 70.5318 20.4518 70.5318C20.5933 70.5318 20.7246 70.4613 20.7651 70.3605C20.8055 70.2698 20.7347 69.2519 20.6135 68.1131C20.3407 65.5935 20.3407 65.5532 20.563 65.6137C20.7853 65.6742 22.8161 67.0952 22.8161 67.1859C22.8161 67.2262 22.9576 68.3146 23.1193 69.6046C23.4123 71.8621 23.4426 71.9932 23.9377 73.2328C24.4732 74.5732 24.6551 74.8654 24.938 74.8654C25.3522 74.8654 25.4533 73.2025 25.1906 70.8846C25.0188 69.3225 24.9986 68.748 25.14 68.6674C25.2815 68.5868 26.4636 69.3023 27.0295 69.8062L27.4639 70.1791L27.8277 72.5475C28.3632 76.0647 29.3534 79.2998 29.8889 79.2998C29.9394 79.2998 30.0303 79.2091 30.0909 79.0982C30.1516 78.9874 30.2425 78.9168 30.293 78.9471C30.3334 78.9773 30.5254 79.4409 30.6972 79.9851C30.879 80.5193 31.0508 80.9929 31.0912 81.0332C31.1316 81.0736 31.5964 80.8317 32.1319 80.4991C32.6775 80.1665 33.1524 79.9146 33.2029 79.9448C33.2534 79.975 33.3242 80.2572 33.3545 80.5797C33.4555 81.7488 34.375 82.8675 35.0721 82.6861C35.3449 82.6256 35.3449 82.6155 35.3449 81.7387C35.3449 80.6805 35.4359 80.1061 35.5874 80.1061C35.6481 80.1061 35.9714 80.4487 36.3048 80.8619C36.6382 81.2751 36.9919 81.6077 37.0828 81.6178C37.1839 81.6178 37.5981 81.4868 38.0225 81.3154C39.1339 80.872 39.1036 80.8619 39.2248 81.9C39.245 82.1418 39.2956 82.3636 39.3158 82.3938C39.3461 82.424 39.6694 82.2728 40.0331 82.0713C40.407 81.8697 40.7606 81.7186 40.8415 81.7488C40.9122 81.779 41.0334 82.2124 41.1446 82.8372C41.2355 83.4117 41.3365 83.9055 41.3669 83.9357C41.3972 83.966 41.7104 83.6737 42.0539 83.2807L42.6905 82.5853L42.8521 82.8271C42.933 82.9682 43.1451 83.4318 43.327 83.8652C43.5089 84.2885 43.6907 84.6412 43.7312 84.6412C43.7817 84.6412 44.2161 84.2986 44.691 83.8753C45.176 83.4621 45.6206 83.1396 45.6812 83.1597C45.762 83.1799 45.8328 83.6233 45.8732 84.3389C45.9136 84.9637 45.9641 85.4878 45.9742 85.5079C45.9944 85.518 46.4592 85.1955 47.0149 84.7823C47.5605 84.3691 48.0657 84.0466 48.1162 84.0668C48.2375 84.097 48.3587 84.3288 49.6318 86.9491L50.5311 88.8035L51.1474 88.1282C51.4909 87.7553 51.8143 87.4631 51.8749 87.4631C51.9355 87.4631 52.178 88.1383 52.4205 88.9647C52.6529 89.7811 52.8752 90.4966 52.9055 90.5571C53.0469 90.7687 55.9973 92.3107 57.9776 93.2076C59.1194 93.7216 60.0994 94.2053 60.1601 94.2759C60.2207 94.3565 60.443 95.455 60.6551 96.7249L61.0391 99.0428L60.8471 99.6274C60.6147 100.343 60.6147 101.391 60.8572 104.294C61.1098 107.458 61.2008 109.494 61.0896 109.937C60.9583 110.431 60.4935 110.854 59.766 111.147C59.0183 111.439 58.6849 111.701 58.6849 112.013C58.6849 112.356 59.574 112.86 60.2005 112.86C60.8269 112.86 60.8976 112.961 60.837 113.696C60.7158 114.997 60.3217 115.41 58.2807 116.438C57.7553 116.7 56.947 117.214 56.4822 117.577C55.7952 118.121 55.6335 118.302 55.5426 118.645C55.4314 119.018 55.2597 120.318 55.3102 120.318C55.3203 120.318 55.5628 120.197 55.8457 120.056C56.1387 119.894 56.6136 119.763 56.9874 119.723C57.8665 119.622 59.0688 118.917 60.15 117.879C60.5945 117.446 61.0088 117.113 61.0795 117.143C61.1603 117.163 61.2109 117.375 61.2109 117.647C61.2109 118.141 61.5443 118.927 61.8878 119.229C62.1707 119.491 62.7062 119.683 64.3127 120.116C65.6364 120.479 66.2628 120.721 66.2628 120.882C66.2628 121.003 66.0203 121.386 65.8081 121.628C65.6768 121.769 65.5454 121.981 65.505 122.102C65.4343 122.364 65.5252 122.394 66.0607 122.223C66.2527 122.162 66.7882 122.081 67.2328 122.031C67.7986 121.971 68.2027 121.87 68.5463 121.688C69.4253 121.225 70.466 121.426 70.7388 122.112C71.1026 123.009 72.7697 124.067 75.3664 125.054C76.8112 125.609 77.2457 125.851 77.8519 126.476C78.2965 126.939 78.5289 127.443 78.64 128.219C78.731 128.824 78.8522 128.884 78.9836 128.411C79.3271 127.09 79.509 125.992 79.4787 125.377L79.4484 124.702H79.7515C79.9232 124.702 81.1862 124.792 82.5704 124.893C85.2985 125.105 85.8138 125.075 87.0869 124.641C87.6729 124.44 87.8447 124.44 88.5317 124.611C88.6732 124.641 88.7944 124.631 88.7944 124.581C88.7944 124.379 87.7335 123.321 87.3395 123.119C87.1172 123.009 86.8242 122.827 86.713 122.716C86.4402 122.474 85.5713 122.243 84.571 122.152L83.8031 122.081L83.6516 121.578C83.5303 121.195 83.308 120.882 82.7119 120.267L81.9339 119.461L81.1458 119.471C80.5901 119.481 80.196 119.542 79.8222 119.693C79.1048 119.985 79.0341 119.975 78.8017 119.522C78.6704 119.28 78.4077 119.008 78.0641 118.796C77.7711 118.615 77.3164 118.292 77.0537 118.091C76.5384 117.687 75.8514 117.486 73.7498 117.133C72.8909 116.982 72.6889 116.921 72.6282 116.75C72.3554 116.085 71.4966 107.136 71.537 105.402C71.5673 103.971 71.5067 104.072 72.6788 103.719L73.285 103.538L73.9417 101.945C74.548 100.474 74.6894 100.222 75.8211 98.67C76.5485 97.6823 77.8216 96.1303 78.923 94.9209L80.8023 92.8549L81.9339 90.0834C82.5502 88.5616 83.106 87.2615 83.1767 87.2011C83.2373 87.1406 83.9244 86.8786 84.6923 86.6165L86.1068 86.1529L88.6328 84.2381C90.896 82.5349 91.3911 82.1015 93.3109 80.1867L95.4529 78.04L96.9988 75.5205C98.2315 73.515 98.8074 72.4668 99.7773 70.3807L101 67.7603L101.657 63.9307L102.324 60.101L102.283 56.2209C102.253 54.0843 102.202 52.0485 102.172 51.6857C102.091 50.819 101.394 48.7933 100.666 47.3521C99.7874 45.6086 98.4436 42.4643 98.2112 41.6076C97.9283 40.5595 97.7667 39.1183 97.8071 37.9291L97.8374 36.9213L98.3123 36.9515C98.9185 37.0019 99.8885 36.5786 100.323 36.0848C100.495 35.8832 100.778 35.4297 100.939 35.0669C101.232 34.432 101.253 34.3211 101.293 32.7389C101.343 31.3481 101.313 30.8442 101.121 29.665C101 28.889 100.778 27.8207 100.616 27.2866C100.323 26.2989 99.6662 24.8779 99.2519 24.3236C98.7265 23.6182 98.4436 22.8421 98.6053 22.5499C98.7467 22.2677 99.6763 22.2979 102.041 22.6507C105.547 23.1848 105.466 23.1646 105.87 23.5275C106.193 23.8298 106.416 23.9104 106.769 23.8802C106.941 23.8701 106.89 23.6484 106.294 22.0157L105.819 20.7157L104.94 19.8892C104.455 19.4357 103.849 18.952 103.597 18.821C103.122 18.569 103.031 18.3473 103.314 18.1155C103.405 18.0349 103.627 17.6721 103.809 17.2891C104.233 16.4123 104.415 15.213 104.263 14.2959C104.203 13.9331 104.122 13.1167 104.092 12.4818C104.031 11.4135 104.041 11.2825 104.243 10.8996C104.516 10.3453 104.546 8.70253 104.284 7.8862C103.991 6.93886 103.445 6.51558 103.445 7.2412C103.445 7.86605 102.93 8.59167 102.111 9.11573C101.333 9.61964 101.192 9.38784 101.283 7.77534C101.354 6.37448 101.253 5.69925 100.798 4.58058C100.515 3.89526 100.414 3.76425 100.121 3.64331C99.5955 3.42159 99.545 3.56269 99.747 4.61081C99.8885 5.34651 99.8986 5.59847 99.7976 5.99151C99.4944 7.31175 99.2014 7.69472 98.7366 7.39237C98.4942 7.2412 98.4942 7.21097 98.4942 5.83026C98.4942 3.53245 98.0799 2.4037 97.0392 1.83933C96.7967 1.70831 96.726 1.69823 96.6148 1.81917C96.4936 1.93003 96.4936 2.15175 96.5946 3.09909C96.726 4.38909 96.6249 4.88292 96.0692 5.75972C95.8267 6.14269 95.7156 6.23339 95.4731 6.23339C95.3114 6.23339 95.1397 6.17292 95.079 6.10237C94.9578 5.9512 94.5233 4.92323 94.1091 3.80456C93.7655 2.8673 93.4119 2.26261 92.5834 1.22456C92.0984 0.619873 91.9671 0.519092 91.3002 0.267139C90.3908 -0.0855953 90.2494 -0.0855953 90.1686 0.246983ZM24.5843 29.0503C25.3219 29.2619 25.6957 29.4131 25.6957 29.5139C25.6957 29.6852 24.2913 30.2395 23.9882 30.1992C23.7558 30.1689 23.1193 29.2014 23.1193 28.889C23.1193 28.6471 23.2708 28.6673 24.5843 29.0503ZM17.9663 29.3728C17.9663 29.534 16.9862 30.5116 16.8245 30.5217C16.774 30.5217 16.6023 30.8139 16.4406 31.1768C16.1072 31.9225 16.0263 32.8396 16.1779 34.301L16.2688 35.1072L14.531 37.3647L12.783 39.6121L12.0353 41.4968C11.6211 42.5247 11.2371 43.4116 11.1866 43.4721C11.035 43.6232 10.9239 43.3814 10.8532 42.7364C10.8228 42.4139 10.7117 41.4363 10.6006 40.5494L10.4086 38.9369L10.7218 37.0725L11.0451 35.208L12.0252 33.7971C12.6516 32.89 13.3488 32.0435 13.955 31.4388C14.8038 30.6023 15.0564 30.431 16.1577 29.8565C17.4207 29.2115 17.9663 29.0704 17.9663 29.3728ZM66.2931 100.091L66.3537 101.784L67.2732 102.842L68.1926 103.89L68.6473 106.39C68.8898 107.76 69.2738 109.766 69.5061 110.854C69.8194 112.376 69.8901 112.88 69.8093 113.092C69.6577 113.475 69.0212 114.14 68.7281 114.21C68.3846 114.301 68.2229 114.734 68.4452 114.986C68.5766 115.128 68.7585 115.178 69.1929 115.178C69.9911 115.178 70.1124 115.299 70.1326 116.085L70.1528 116.74L68.9403 116.77C67.0913 116.821 65.6465 116.639 64.828 116.266C64.4643 116.105 64.0096 115.813 63.8278 115.621C63.3933 115.178 63.3731 114.835 63.5752 111.691C63.6661 110.31 63.7873 107.68 63.8379 105.856C63.9288 102.903 63.9692 102.389 64.2016 101.27L64.4643 100.01L65.1817 99.1537C65.99 98.1862 66.0809 98.1056 66.1719 98.2769C66.2022 98.3475 66.2628 99.1638 66.2931 100.091ZM70.2134 119.078C70.2639 119.129 70.2437 119.27 70.173 119.401C70.0315 119.693 69.2434 119.995 68.6372 120.005C68.2634 120.015 68.2128 119.985 67.9501 119.552C67.7986 119.3 67.6975 119.058 67.7178 119.018C67.7885 118.917 70.1124 118.977 70.2134 119.078ZM74.457 119.31C75.3563 119.401 75.5685 119.461 75.912 119.713C76.4172 120.066 76.9729 120.187 77.3771 120.015C77.7206 119.874 78.1854 119.955 78.1854 120.146C78.1854 120.358 77.2457 120.6 75.7604 120.771C74.4166 120.933 74.3863 120.933 73.9215 120.721C73.4264 120.509 73.093 120.136 72.9819 119.683C72.8505 119.169 72.8909 119.159 74.457 119.31ZM82.9544 121.698C83.3181 122.031 83.1767 122.102 81.8834 122.233C80.6608 122.343 79.3473 122.293 79.2463 122.132C79.1351 121.961 79.4787 121.89 80.7113 121.819C81.4085 121.779 82.0855 121.698 82.2269 121.638C82.5907 121.497 82.7422 121.507 82.9544 121.698Z" fill="white"/>
</svg>
