<svg width="107" height="138" viewBox="0 0 107 138" fill="none" xmlns="http://www.w3.org/2000/svg">
<path d="M38.8161 0.0286557C39.823 0.135769 41.6439 0.53209 42.6722 0.874854C44.1718 1.36758 45.3822 1.9567 46.7533 2.86717C47.8244 3.58483 47.9208 3.63839 48.4778 3.62768C49.1633 3.62768 49.9345 3.28491 50.6308 2.69579L51.0807 2.29947V2.64223C51.0807 2.97428 51.1021 2.985 51.402 2.92073C53.4693 2.5137 56.7791 2.21378 59.2856 2.21378H61.1708L60.8923 2.54583C60.7423 2.72792 60.6138 2.93144 60.6138 2.99571C60.6138 3.0814 61.2779 3.23136 62.424 3.42416C65.5732 3.9276 68.5081 4.66668 71.5287 5.68426C72.9104 6.15556 73.4996 6.48762 73.4139 6.7554C73.3925 6.81967 73.8959 7.24812 74.5386 7.698C75.8132 8.61918 77.7199 10.0866 79.198 11.297C80.5798 12.4324 83.3219 14.8746 83.3219 14.9603C83.3219 15.0032 83.097 15.1317 82.8185 15.2495L82.315 15.453L83.2683 16.1171C86.0747 18.0345 89.1703 21.0337 91.2376 23.84C91.6018 24.3328 91.8803 24.7505 91.8589 24.7719C91.8375 24.7934 91.5804 24.7398 91.3019 24.6541C91.0127 24.5684 90.7663 24.5149 90.7449 24.5256C90.6806 24.5898 91.3019 26.4536 91.8589 27.8675C92.6194 29.8063 93.9047 32.3235 95.0509 34.123C95.5543 34.9049 95.9613 35.569 95.9613 35.6011C95.9613 35.6226 95.8756 35.6226 95.7685 35.6011C95.6721 35.569 95.4043 35.5154 95.1901 35.4833L94.7938 35.4083L95.0616 36.0724C96.1863 38.8253 98.1572 41.7173 100.289 43.7418C101.124 44.5451 101.21 44.7272 100.524 44.2559C100.31 44.1167 100.139 44.0096 100.139 44.031C100.139 44.0524 100.407 44.6415 100.739 45.3378C102.645 49.376 105.162 55.7814 106.33 59.5411C106.608 60.4515 106.619 60.5586 106.448 60.4515C106.341 60.3873 106.169 60.173 106.062 59.9802C105.955 59.7874 105.837 59.6268 105.794 59.6268C105.741 59.6268 105.709 59.8838 105.709 60.1837C105.709 60.8907 105.441 63.847 105.216 65.6251C104.884 68.3137 104.177 71.3664 103.459 73.2195L103.117 74.0978L102.699 73.6587C102.163 73.1017 102.003 73.1124 101.906 73.6801C101.66 75.1583 100.353 78.1789 99.2069 79.9248C97.9965 81.7672 95.9399 83.9737 94.8045 84.6592C94.0654 85.1091 93.1014 84.8842 92.6622 84.1772C92.5658 84.0058 92.448 83.8559 92.3944 83.8452C92.3516 83.8345 91.9339 84.3165 91.4626 84.9056C90.3486 86.2981 89.3524 87.2728 88.367 87.9155C87.6386 88.3975 86.4711 88.8688 85.989 88.8688C85.8712 88.8688 85.7855 88.9438 85.7855 89.0509C85.7855 89.4151 86.2461 89.9935 87.3922 91.1182C88.217 91.9216 88.5705 92.35 88.6347 92.6178C88.7419 92.982 88.7526 92.9927 89.4274 93.0677C91.1626 93.2605 93.3799 93.8496 95.158 94.5994C97.3217 95.4992 98.7784 96.5489 99.6032 97.7807L100.042 98.4448L100.567 98.4126C101.596 98.3591 102.474 99.0125 103.149 100.351C104.048 102.14 104.52 104.004 104.595 106.168C104.67 107.946 104.52 109.124 103.941 111.191C103.459 112.969 103.374 113.537 103.299 116.076C103.224 118.593 103.106 119.386 102.731 120.092C102.474 120.564 102.174 120.821 101.617 121.024C101.585 121.046 101.713 121.635 101.917 122.342C102.699 125.052 102.431 127.066 101.114 128.34C100.867 128.576 100.674 128.822 100.674 128.897C100.674 129.101 100.224 129.358 99.871 129.358C99.4425 129.358 99.0783 129.09 98.8962 128.651C98.6927 128.169 98.7034 127.73 98.9605 126.809C99.2176 125.866 99.2176 125.898 98.9712 126.037C98.6285 126.219 97.9322 126.155 97.2253 125.887C95.8649 125.373 95.5222 125.287 95.2758 125.448C95.1473 125.534 94.601 125.662 94.0654 125.759C93.4549 125.855 92.9514 125.994 92.7693 126.123C92.5765 126.273 92.2231 126.841 91.7625 127.773C90.6485 130.022 89.9308 130.847 88.6669 131.361C88.067 131.607 87.028 131.607 86.5782 131.361C86.2568 131.189 86.2354 131.2 86.0426 131.404C85.8284 131.639 85.4642 131.854 85.0464 131.982C84.8001 132.057 84.7894 132.046 84.8536 131.575L84.9179 131.082L84.468 131.35C83.6861 131.789 83.6432 131.757 83.6432 130.632C83.6432 129.518 83.8789 128.49 84.4466 127.044C84.9393 125.823 86.2354 123.135 86.3104 123.167C86.3425 123.188 86.7603 123.392 87.2208 123.627L88.067 124.056L88.292 123.734C88.624 123.274 89.0204 122.899 89.3845 122.706C89.6416 122.578 89.8987 122.192 90.4664 121.131C90.8841 120.36 91.1948 119.696 91.1626 119.664C91.1305 119.632 90.9484 119.61 90.7449 119.61C90.5521 119.61 90.3914 119.578 90.3914 119.525C90.3914 119.482 90.6378 119.139 90.927 118.764C91.2269 118.379 91.4626 118.047 91.4626 118.004C91.4626 117.972 91.2483 117.886 90.9805 117.811C90.52 117.693 90.4985 117.672 90.6164 117.436C90.6913 117.308 90.9805 116.943 91.2697 116.622C92.0195 115.797 92.2338 115.315 92.298 114.351C92.3516 113.398 92.2338 112.969 91.7303 112.23L91.3661 111.705L91.6875 111.298C92.0945 110.774 92.0624 110.431 91.5804 110.109C91.0769 109.767 89.7916 109.381 88.2813 109.113C85.9141 108.696 84.6608 108.385 83.9753 108.064L83.3005 107.742L83.3648 108.031C83.7182 109.66 83.8575 111.684 83.6111 111.684C83.4504 111.684 83.0113 111.395 82.8078 111.148C82.6792 111.009 82.6685 111.009 82.7328 111.202C83.2683 112.852 83.6968 114.908 83.8146 116.418C83.8789 117.211 83.8682 117.286 83.7289 117.104C83.5897 116.922 83.5683 117.029 83.504 118.175C83.429 119.493 83.2469 120.789 83.1184 120.789C83.0863 120.789 82.8613 120.521 82.6364 120.2C82.4007 119.878 82.1972 119.621 82.1758 119.643C82.1651 119.664 82.1972 119.835 82.2508 120.039C82.4222 120.649 82.5721 122.492 82.5078 123.113L82.4329 123.702L82.0901 123.638L81.7366 123.563L82.0044 124.398C82.3686 125.534 82.7542 127.408 82.8506 128.447L82.9256 129.304L82.6042 129.004C82.4329 128.844 82.2615 128.715 82.2186 128.715C82.1758 128.715 82.1437 128.951 82.1437 129.229C82.1437 130.333 81.2118 131.586 79.9264 132.239C78.8874 132.753 77.9555 132.893 75.3955 132.893C72.075 132.893 70.2647 133.15 68.5509 133.857C67.619 134.242 67.1049 134.564 65.8088 135.603C64.5127 136.642 63.9986 136.888 63.131 136.888C62.424 136.888 61.9206 136.684 61.6099 136.277L61.4171 136.02L60.9244 136.384C60.3674 136.792 59.6712 137.07 59.2106 137.07C58.7393 137.07 58.0645 136.759 57.8395 136.438C57.4004 135.806 57.4754 135.249 58.1395 134.339C58.7072 133.567 59.0392 133 58.9642 132.925C58.9321 132.893 58.6536 133.096 58.343 133.385C57.4968 134.189 55.7937 135.506 55.2902 135.774C53.8549 136.502 52.7838 135.238 53.3836 133.546C53.5229 133.139 53.5229 133.075 53.3193 132.732C53.0944 132.357 53.073 131.811 53.2765 131.35C53.3515 131.179 53.3408 131.168 53.1372 131.275C52.6552 131.532 52.6124 131.457 52.7088 130.504C52.9873 127.869 53.8335 126.337 55.4295 125.587C55.8472 125.395 57.3897 124.977 59.714 124.431C61.7171 123.97 63.5594 123.509 63.8272 123.424C65.5517 122.792 66.505 121.506 66.3658 119.985C66.323 119.535 66.3658 119 66.505 118.347C66.6122 117.8 66.73 117.04 66.7728 116.643L66.8371 115.915L66.6443 116.204C66.5372 116.376 66.4301 116.504 66.3872 116.504C66.3551 116.504 66.2908 116.033 66.2587 115.454C66.173 114.008 65.9695 112.466 65.8195 112.273C65.7124 112.134 65.6696 112.134 65.4018 112.262C65.1233 112.412 65.1126 112.412 65.1661 112.187C65.3268 111.481 65.6374 109.713 65.6053 109.681C65.5839 109.66 65.466 109.756 65.3482 109.906C65.2304 110.067 65.1233 110.184 65.1019 110.184C65.0804 110.184 65.0697 109.338 65.0911 108.289C65.1233 106.65 65.1019 106.414 64.9626 106.532C64.8341 106.639 64.7805 106.543 64.6306 105.889C63.9022 102.654 64.7591 99.2696 67.0085 96.4953C67.2656 96.1847 67.4691 95.8419 67.4691 95.7455C67.4691 95.6384 67.2013 94.7601 66.8799 93.796C66.5479 92.8213 66.1623 91.5467 66.0123 90.9575C65.7017 89.7257 65.5732 87.787 65.7338 87.0479C65.7981 86.7908 65.8302 86.5552 65.8088 86.523C65.7338 86.448 64.6841 88.7296 63.9022 90.6362C62.2741 94.6208 61.8349 95.3492 58.7286 99.3124C56.0615 102.708 54.6476 104.893 53.0623 108.042C52.1197 109.895 51.5198 110.624 50.4058 111.256C50.0631 111.448 49.7525 111.684 49.6989 111.78C49.5918 111.973 49.6775 113.034 49.9988 115.754C50.4701 119.621 50.4166 120.66 49.5811 123.949C48.9491 126.434 48.7777 127.612 48.8741 128.769C48.9598 129.701 49.2383 131.072 49.3454 131.072C49.3883 131.072 49.6561 130.782 49.9453 130.429C50.8022 129.39 51.1878 129.476 51.1878 130.697C51.1878 132.336 50.3737 133.492 49.0883 133.696C48.8634 133.739 48.5421 133.717 48.3707 133.653C48.0922 133.546 48.0815 133.557 48.0815 133.899C48.0815 134.564 47.3531 135.174 46.5712 135.163C46.0785 135.153 45.5215 134.928 44.8574 134.446L44.3325 134.071L44.2682 134.371C44.1718 134.746 43.7219 135.238 43.2935 135.42C42.4794 135.774 41.6118 135.538 40.5621 134.681L39.9515 134.178L40.0158 134.767C40.1229 135.785 39.5659 136.277 38.6983 135.945C37.3165 135.42 36.149 133.814 35.6456 131.746C35.4528 130.975 35.3992 130.365 35.3564 128.437C35.26 123.927 35.817 119.525 37.0488 115.101C37.8842 112.091 38.1306 110.988 38.4412 108.921C38.6233 107.764 38.8376 106.532 38.934 106.178C39.1589 105.343 39.7695 104.036 40.5085 102.772C41.3762 101.294 41.8153 100.373 42.0831 99.4731C42.3509 98.5519 42.6937 97.8449 43.1114 97.3201C43.3256 97.0416 43.2935 97.063 42.9507 97.4165C42.7044 97.6629 42.4901 97.8664 42.4794 97.8664C42.383 97.8664 42.6401 96.1525 42.8222 95.4563C43.3042 93.7104 44.1933 92.1786 45.4465 90.9575C45.8642 90.5505 46.0999 90.3041 45.9606 90.4113C45.8321 90.5291 45.7036 90.5933 45.6821 90.5719C45.6607 90.5505 45.725 90.1863 45.8428 89.7793C46.0999 88.7938 46.9889 87.0372 48.1993 85.1198C49.0883 83.7059 50.3309 81.3708 50.3309 81.1031C50.3309 81.0388 50.1809 81.1673 49.9988 81.3708L49.6668 81.7457L49.7417 80.6746C50.0845 74.9762 53.6621 69.192 58.6429 66.2571C59.1999 65.925 59.4248 65.743 59.382 65.6251C58.4072 63.108 57.4004 58.9519 57.4004 57.5059C57.4004 57.2167 57.3468 57.1631 56.9933 57.0667C56.7577 56.9918 56.5863 56.9918 56.5649 57.056C56.5006 57.2381 56.1043 57.6987 56.0079 57.6987C55.9543 57.6987 55.8044 57.4095 55.6758 57.056L55.4402 56.4133L55.1938 56.9489C55.0546 57.2381 54.926 57.4845 54.8939 57.4845C54.8082 57.4845 54.1977 56.4241 53.9299 55.8028C53.7799 55.46 53.6621 55.2779 53.6514 55.3958C53.6514 55.5671 53.555 55.5136 53.1372 55.1173C52.8588 54.8495 52.5374 54.5603 52.4303 54.4746C52.2375 54.3353 52.2268 54.346 52.2911 54.6888L52.366 55.0423L52.0661 54.8602C51.4341 54.4532 50.9628 54.0247 50.6308 53.5641C50.4487 53.307 50.2773 53.1142 50.2559 53.1357C50.2345 53.1571 50.2666 53.382 50.3202 53.6391C50.3737 53.8962 50.4058 54.1211 50.3844 54.1532C50.2987 54.2389 49.5275 53.5748 48.2207 52.3109C47.1175 51.2397 46.9247 51.0898 47.0103 51.3683C47.0639 51.5825 47.0639 51.7003 46.9996 51.7003C46.839 51.7003 45.6393 50.5328 45.4251 50.1793C45.2323 49.858 45.0823 49.7937 45.0823 50.0294C45.0823 50.5864 44.3861 49.8044 44.0004 48.819C43.8612 48.4655 43.8076 48.4012 43.7969 48.5726C43.7969 48.7226 43.7434 48.8083 43.6577 48.7868C43.4006 48.6904 42.5973 47.5229 42.3402 46.8588L42.0831 46.184L42.1474 46.8159C42.1795 47.1587 42.2759 47.6514 42.3509 47.9085C42.4259 48.1656 42.458 48.3798 42.4259 48.3798C42.383 48.3691 42.1581 48.1334 41.9224 47.8442C40.7549 46.4196 40.1872 44.7379 39.7802 41.5031C39.7159 41.0425 39.673 40.989 39.0518 40.5712C38.6876 40.3356 38.3877 40.1535 38.377 40.1642C38.3555 40.1749 38.1949 41.5138 38.0128 43.1312C37.7878 45.0271 37.6272 46.1197 37.5308 46.184C37.4022 46.2911 37.2416 47.4693 37.0916 49.3653C37.0273 50.2007 36.9845 50.3079 36.7596 50.0829C36.631 49.9544 36.6203 50.0079 36.4061 51.2719C36.1811 52.5572 36.2026 52.5037 36.0312 52.2788C35.8919 52.0967 35.8812 52.1288 35.9241 52.6108C36.0312 53.8426 36.0526 54.9137 35.9883 55.8242L35.9241 56.7882L35.667 56.3062L35.3992 55.8242L35.26 56.6276C35.035 57.9451 34.7994 59.8517 34.7994 60.3873C34.7994 60.6658 34.7244 61.0621 34.6387 61.2656C34.4031 61.8226 34.4245 62.0904 34.7137 62.0904H34.9386L34.6923 62.3582L34.4352 62.6259L34.9386 62.5617L35.4313 62.4867L35.2171 63.2151C35.0993 63.6114 35.0243 63.9542 35.0457 63.9863C35.0779 64.0077 35.2064 63.9756 35.3349 63.9113C35.7313 63.6971 35.6884 63.8685 35.2385 64.3505C34.9922 64.5968 34.7994 64.8218 34.7994 64.8325C34.7994 64.9075 35.3778 64.6397 35.6777 64.4362C35.8491 64.3076 36.0098 64.2326 36.0312 64.2541C36.1597 64.3826 36.299 65.8822 36.299 67.1997C36.299 71.8056 34.6066 76.4436 31.1254 81.3173C29.283 83.8987 26.091 87.6263 23.5417 90.1542C21.7958 91.9001 20.5211 93.0034 18.2503 94.7601C14.994 97.2665 13.3231 98.7447 12.027 100.234C11.4914 100.844 11.063 101.24 10.838 101.315C10.581 101.412 10.4953 101.487 10.5488 101.615C10.9023 102.429 10.9344 102.697 10.9344 104.293C10.9344 105.204 10.8487 106.51 10.763 107.185C10.6666 107.86 10.5595 108.663 10.5274 108.963L10.4631 109.499L10.9558 109.692C11.2236 109.799 11.5021 109.97 11.5557 110.077C11.8877 110.688 11.3522 112.53 10.6131 113.312C10.2917 113.655 10.3239 113.708 10.913 113.837C11.7164 114.019 12.6054 113.719 13.2267 113.055C13.6765 112.595 13.8693 112.187 13.9979 111.47C14.1586 110.624 14.2764 110.367 14.6727 110.034C14.9298 109.81 15.0797 109.756 15.294 109.81C15.9259 109.97 16.333 110.752 16.0652 111.32C15.9259 111.63 15.9259 111.62 16.3758 111.395C16.6971 111.245 16.7614 111.245 17.0078 111.373C17.4041 111.598 17.5541 111.963 17.5541 112.787C17.5541 114.116 17.1256 115.679 16.4722 116.751C16.108 117.34 16.108 117.361 16.333 117.361C16.4187 117.361 16.6436 117.511 16.8257 117.693C17.147 118.004 17.147 118.036 17.1042 118.764C16.9542 120.735 15.1547 122.663 12.6375 123.552C11.9092 123.809 11.6628 123.831 10.3774 123.841C8.79215 123.841 8.47081 123.766 7.44252 123.145C6.28569 122.438 4.19697 120.489 3.49002 119.461C2.56884 118.1 1.3049 114.983 0.683639 112.552C-0.291097 108.685 -0.226828 104.882 0.897866 100.351C1.25134 98.9482 1.26205 98.9161 1.79762 98.3912C2.526 97.6843 2.6224 97.4808 2.35461 97.3094C2.1511 97.1916 2.16181 97.1701 2.46173 96.731C2.83663 96.174 2.84734 96.1097 2.50457 96.174C2.08683 96.2597 2.1511 95.7562 2.63311 95.1992C2.95445 94.8136 2.9973 94.7172 2.85805 94.6422C2.77236 94.5994 2.59026 94.4602 2.45102 94.353L2.19394 94.1388L2.53671 94.0638C2.72951 94.0317 2.87947 93.9674 2.87947 93.9353C2.87947 93.9032 2.72951 93.6032 2.54742 93.2712L2.20465 92.6714L2.96516 93.4104L3.72567 94.1495L3.78994 93.8389C4.2291 91.8359 4.91463 90.0149 5.69656 88.7724C6.51063 87.487 6.84268 86.8015 7.16402 85.7411L7.26042 85.4412L6.8641 85.7411L6.47849 86.0303L6.84268 85.3876C7.29256 84.595 7.91382 83.6524 8.52437 82.849C9.03851 82.1742 9.08136 82.0564 8.76002 82.2278C8.64219 82.3027 8.51365 82.3349 8.49223 82.3027C8.39583 82.2063 9.23132 80.0105 9.85258 78.7251C10.1953 78.0075 10.8916 76.8078 11.395 76.058C11.8984 75.3189 12.3055 74.687 12.3055 74.6762C12.3055 74.6548 12.1555 74.687 11.9734 74.7512C11.802 74.8155 11.6307 74.8369 11.6092 74.8155C11.5021 74.7084 12.8732 73.1874 14.3299 71.7949C16.5472 69.674 18.5181 67.6817 18.5181 67.5639C18.5181 67.5103 18.411 67.4889 18.2931 67.521C18.0682 67.5853 18.0682 67.5639 18.3467 67.114C19.2572 65.6573 19.6214 64.4255 19.6321 62.7866C19.6428 61.5548 19.5142 60.1623 19.3964 60.1623C19.3536 60.1623 19.2036 60.3444 19.0536 60.5694L18.7859 60.9657L18.7537 59.2519C18.7216 57.6452 18.9037 55.4279 19.1608 54.346C19.2465 53.9711 19.2357 53.939 19.0429 53.9819C18.7859 54.0461 18.7859 54.2175 19.0536 51.0255C19.2893 48.262 19.4071 47.4479 19.6642 46.666C19.9213 45.8948 20.7675 44.2774 21.0138 44.0631C21.2388 43.881 21.2281 43.881 20.7996 44.0524C20.264 44.2559 19.9427 44.2024 19.4928 43.8168C19.0858 43.474 18.8823 42.7992 18.7966 41.4817C18.743 40.8069 18.6466 40.3356 18.4538 39.875C17.0613 36.6187 16.8685 35.8689 16.8685 33.6517C16.8685 32.1307 16.9971 31.3273 17.4255 30.0098C17.6933 29.2279 17.7147 29.0136 17.7147 27.3855C17.7147 25.6396 17.7147 25.6074 18.0575 24.7934C18.2503 24.3328 18.7644 23.358 19.2143 22.6297C19.6535 21.9013 20.0605 21.1729 20.1248 21.0122C20.2962 20.5624 20.0927 20.0161 19.4714 19.2984C18.7002 18.3987 18.3788 17.6703 18.3253 16.6634C18.2717 15.6566 18.4752 14.9603 19.0001 14.3391C19.4178 13.8678 20.1676 13.5143 20.6068 13.5893C20.9174 13.6535 20.9174 13.6749 20.7139 12.9252C20.489 12.0897 20.5104 10.5579 20.7568 9.5832C21.1852 7.92294 22.3849 6.06987 23.8309 4.83806C26.5302 2.54583 30.0757 0.928411 33.9103 0.232172C34.8208 0.0607898 37.9378 -0.0570353 38.8161 0.0286557ZM24.0452 18.5915C24.0023 18.645 24.0773 18.6665 24.1951 18.6343C24.4415 18.57 24.4736 18.4951 24.2594 18.4951C24.1737 18.4951 24.0773 18.5379 24.0452 18.5915ZM66.8157 101.208C66.6978 101.433 66.6978 101.444 66.8585 101.305C66.9656 101.23 67.0406 101.123 67.0406 101.069C67.0406 100.908 66.9442 100.962 66.8157 101.208Z" fill="white"/>
</svg>
