<svg width="117" height="142" viewBox="0 0 117 142" fill="none" xmlns="http://www.w3.org/2000/svg">
<path d="M74.3813 0.0296783C73.2758 0.14064 71.2765 0.551224 70.1475 0.906311C68.501 1.41676 67.172 2.02707 65.6667 2.97029C64.4906 3.71376 64.3848 3.76924 63.7732 3.75815C63.0205 3.75815 62.1738 3.40306 61.4093 2.79274L60.9154 2.38216V2.73726C60.9154 3.08125 60.8918 3.09235 60.5625 3.02577C58.2927 2.6041 54.6587 2.2934 51.9067 2.2934H49.8368L50.1426 2.63739C50.3072 2.82603 50.4483 3.03687 50.4483 3.10344C50.4483 3.19221 49.7192 3.34756 48.4608 3.5473C45.0031 4.06885 41.7807 4.83452 38.4642 5.8887C36.9471 6.37695 36.3002 6.72095 36.3943 6.99837C36.4178 7.06494 35.8651 7.5088 35.1595 7.97487C33.7599 8.92918 31.6665 10.4494 30.0436 11.7033C28.5264 12.8796 25.5157 15.4096 25.5157 15.4984C25.5157 15.5428 25.7627 15.6759 26.0684 15.798L26.6212 16.0088L25.5745 16.6968C22.4932 18.6831 19.0944 21.7902 16.8245 24.6975C16.4247 25.2079 16.1189 25.6407 16.1424 25.6629C16.1659 25.6851 16.4482 25.6296 16.754 25.5408C17.0715 25.4521 17.342 25.3966 17.3655 25.4077C17.4361 25.4743 16.754 27.4051 16.1424 28.8698C15.3074 30.8783 13.8961 33.486 12.6377 35.3503C12.085 36.1603 11.6381 36.8483 11.6381 36.8816C11.6381 36.9038 11.7322 36.9038 11.8498 36.8816C11.9556 36.8483 12.2496 36.7928 12.4848 36.7595L12.92 36.6819L12.626 37.3699C11.3911 40.2217 9.22713 43.2178 6.88676 45.315C5.96942 46.1473 5.87534 46.3359 6.62802 45.8477C6.86324 45.7034 7.05141 45.5925 7.05141 45.6146C7.05141 45.6368 6.75739 46.2472 6.39281 46.9684C4.29941 51.1519 1.53564 57.7877 0.25373 61.6826C-0.052048 62.6258 -0.0638087 62.7367 0.124362 62.6258C0.241969 62.5592 0.43014 62.3373 0.547747 62.1375C0.665354 61.9378 0.794721 61.7713 0.841764 61.7713C0.900568 61.7713 0.93585 62.0377 0.93585 62.3484C0.93585 63.0807 1.22987 66.1434 1.47684 67.9855C1.84142 70.7707 2.61763 73.9333 3.40559 75.853L3.78194 76.7629L4.2406 76.3079C4.82864 75.7309 5.00505 75.742 5.11089 76.3301C5.38139 77.8615 6.81619 80.9907 8.07459 82.7995C9.40355 84.7081 11.6616 86.994 12.9082 87.7042C13.7197 88.1702 14.7782 87.9372 15.2604 87.2048C15.3662 87.0273 15.4956 86.8719 15.5544 86.8608C15.6014 86.8497 16.0601 87.3491 16.5776 87.9594C17.8007 89.402 18.8944 90.4118 19.9764 91.0776C20.7761 91.5769 22.058 92.0652 22.5873 92.0652C22.7166 92.0652 22.8107 92.1428 22.8107 92.2538C22.8107 92.6311 22.305 93.2303 21.0466 94.3954C20.1411 95.2277 19.753 95.6716 19.6824 95.949C19.5648 96.3263 19.553 96.3374 18.8121 96.415C16.9069 96.6148 14.4724 97.2251 12.5201 98.0019C10.1445 98.934 8.54502 100.021 7.63944 101.298L7.15725 101.986L6.58098 101.952C5.45195 101.897 4.48758 102.574 3.74665 103.961C2.75876 105.814 2.24129 107.745 2.15896 109.986C2.07664 111.828 2.24129 113.049 2.87636 115.191C3.40559 117.033 3.49968 117.621 3.582 120.251C3.66433 122.858 3.7937 123.679 4.20532 124.412C4.48758 124.9 4.81688 125.166 5.42843 125.377C5.46371 125.399 5.32259 126.01 5.09913 126.742C4.2406 129.55 4.53462 131.636 5.98118 132.956C6.25168 133.2 6.46337 133.456 6.46337 133.533C6.46337 133.744 6.95732 134.01 7.34543 134.01C7.81585 134.01 8.21572 133.733 8.41565 133.278C8.6391 132.779 8.62734 132.324 8.34508 131.369C8.06283 130.393 8.06283 130.426 8.33332 130.57C8.70966 130.759 9.47411 130.693 10.2503 130.415C11.7439 129.882 12.1203 129.794 12.3908 129.96C12.5319 130.049 13.1317 130.182 13.7197 130.282C14.3901 130.382 14.9428 130.526 15.1428 130.659C15.3545 130.815 15.7426 131.403 16.2483 132.368C17.4714 134.698 18.2593 135.553 19.6471 136.085C20.3057 136.341 21.4465 136.341 21.9404 136.085C22.2933 135.908 22.3168 135.919 22.5285 136.13C22.7637 136.374 23.1636 136.596 23.6222 136.729C23.8927 136.807 23.9045 136.796 23.8339 136.307L23.7633 135.797L24.2573 136.074C25.1158 136.529 25.1629 136.496 25.1629 135.331C25.1629 134.177 24.9041 133.112 24.2808 131.614C23.7398 130.349 22.3168 127.563 22.2345 127.597C22.1992 127.619 21.7405 127.83 21.2348 128.074L20.3057 128.518L20.0587 128.185C19.6941 127.708 19.259 127.319 18.8591 127.119C18.5769 126.986 18.2946 126.587 17.6713 125.488C17.2126 124.689 16.8716 124.001 16.9069 123.968C16.9421 123.935 17.1421 123.912 17.3655 123.912C17.5772 123.912 17.7536 123.879 17.7536 123.824C17.7536 123.779 17.4831 123.424 17.1656 123.036C16.8363 122.636 16.5776 122.292 16.5776 122.248C16.5776 122.215 16.8128 122.126 17.1068 122.048C17.6125 121.926 17.636 121.904 17.5067 121.66C17.4243 121.527 17.1068 121.149 16.7893 120.817C15.966 119.962 15.7308 119.463 15.6602 118.464C15.6014 117.476 15.7308 117.033 16.2835 116.267L16.6834 115.723L16.3306 115.302C15.8837 114.758 15.919 114.403 16.4482 114.07C17.0009 113.715 18.4122 113.315 20.0705 113.038C22.6696 112.605 24.0456 112.283 24.7983 111.95L25.5392 111.617L25.4686 111.917C25.0805 113.604 24.9277 115.701 25.1982 115.701C25.3746 115.701 25.8567 115.401 26.0802 115.146C26.2213 115.002 26.2331 115.002 26.1625 115.202C25.5745 116.911 25.1041 119.041 24.9747 120.606C24.9041 121.427 24.9159 121.505 25.0688 121.316C25.2217 121.127 25.2452 121.238 25.3158 122.426C25.3981 123.79 25.598 125.133 25.7391 125.133C25.7744 125.133 26.0214 124.856 26.2684 124.523C26.5271 124.19 26.7506 123.924 26.7741 123.946C26.7858 123.968 26.7506 124.146 26.6918 124.356C26.5036 124.989 26.3389 126.897 26.4095 127.541L26.4918 128.151L26.8682 128.085L27.2563 128.007L26.9623 128.873C26.5624 130.049 26.139 131.991 26.0332 133.067L25.9508 133.955L26.3037 133.644C26.4918 133.478 26.68 133.345 26.727 133.345C26.7741 133.345 26.8094 133.589 26.8094 133.877C26.8094 135.02 27.8325 136.319 29.2438 136.995C30.3846 137.528 31.4078 137.672 34.2186 137.672C37.8644 137.672 39.852 137.939 41.7337 138.671C42.7569 139.07 43.3214 139.403 44.7444 140.48C46.1675 141.556 46.732 141.811 47.6846 141.811C48.4608 141.811 49.0135 141.601 49.3546 141.179L49.5663 140.913L50.1073 141.29C50.7188 141.711 51.4833 142 51.989 142C52.5065 142 53.2474 141.678 53.4944 141.345C53.9766 140.691 53.8942 140.114 53.1651 139.17C52.5417 138.371 52.1772 137.783 52.2595 137.706C52.2948 137.672 52.6006 137.883 52.9416 138.183C53.8707 139.015 55.7407 140.38 56.2934 140.657C57.8693 141.412 59.0454 140.102 58.3868 138.349C58.2339 137.928 58.2339 137.861 58.4574 137.506C58.7043 137.117 58.7279 136.552 58.5044 136.074C58.4221 135.897 58.4339 135.886 58.6573 135.997C59.1865 136.263 59.2336 136.185 59.1277 135.198C58.822 132.468 57.8929 130.881 56.1405 130.104C55.6819 129.905 53.9883 129.472 51.4362 128.906C49.237 128.429 47.2142 127.952 46.9201 127.863C45.0267 127.208 43.98 125.877 44.1329 124.301C44.1799 123.835 44.1329 123.28 43.98 122.603C43.8624 122.037 43.733 121.249 43.686 120.839L43.6154 120.084L43.8271 120.384C43.9447 120.561 44.0623 120.694 44.1093 120.694C44.1446 120.694 44.2152 120.206 44.2505 119.607C44.3446 118.109 44.568 116.511 44.7327 116.311C44.8503 116.167 44.8973 116.167 45.1913 116.3C45.4971 116.456 45.5089 116.456 45.4501 116.223C45.2736 115.49 44.9326 113.659 44.9679 113.626C44.9914 113.604 45.1208 113.704 45.2501 113.859C45.3795 114.025 45.4971 114.147 45.5206 114.147C45.5441 114.147 45.5559 113.271 45.5324 112.183C45.4971 110.486 45.5206 110.241 45.6735 110.363C45.8146 110.474 45.8734 110.375 46.0381 109.698C46.8378 106.347 45.897 102.84 43.4272 99.966C43.145 99.6442 42.9215 99.2891 42.9215 99.1892C42.9215 99.0782 43.2155 98.1683 43.5683 97.1696C43.9329 96.1598 44.3563 94.8393 44.521 94.229C44.862 92.9529 45.0032 90.9444 44.8267 90.1787C44.7562 89.9124 44.7209 89.6683 44.7444 89.635C44.8267 89.5573 45.9793 91.9209 46.8378 93.8961C48.6254 98.024 49.1076 98.7786 52.5182 102.884C55.4466 106.402 56.9991 108.666 58.7396 111.928C59.7746 113.848 60.4332 114.602 61.6563 115.257C62.0326 115.457 62.3737 115.701 62.4325 115.801C62.5501 116.001 62.456 117.099 62.1032 119.918C61.5857 123.924 61.6445 125 62.5619 128.407C63.2557 130.981 63.4439 132.202 63.3381 133.4C63.244 134.366 62.9382 135.786 62.8206 135.786C62.7735 135.786 62.4795 135.486 62.162 135.12C61.2211 134.044 60.7978 134.132 60.7978 135.398C60.7978 137.095 61.6916 138.294 63.1028 138.505C63.3498 138.549 63.7026 138.527 63.8908 138.46C64.1966 138.349 64.2084 138.36 64.2084 138.715C64.2084 139.403 65.0081 140.036 65.8666 140.025C66.4076 140.014 67.0192 139.781 67.7483 139.281L68.3246 138.893L68.3952 139.204C68.501 139.592 68.9949 140.102 69.4654 140.291C70.3592 140.657 71.3118 140.413 72.4644 139.525L73.1347 139.004L73.0641 139.614C72.9465 140.668 73.5581 141.179 74.5107 140.835C76.0278 140.291 77.3098 138.627 77.8625 136.485C78.0742 135.686 78.133 135.054 78.18 133.056C78.2859 128.384 77.6743 123.824 76.3219 119.241C75.4045 116.123 75.134 114.98 74.793 112.838C74.593 111.64 74.3578 110.363 74.252 109.997C74.005 109.132 73.3346 107.778 72.5232 106.469C71.5705 104.937 71.0884 103.983 70.7943 103.051C70.5003 102.097 70.124 101.364 69.6653 100.82C69.4301 100.532 69.4654 100.554 69.8417 100.92C70.1122 101.175 70.3474 101.386 70.3592 101.386C70.465 101.386 70.1828 99.6109 69.9828 98.8896C69.4536 97.0808 68.4775 95.494 67.1015 94.229C66.6428 93.8073 66.3841 93.5521 66.537 93.6631C66.6781 93.7851 66.8192 93.8517 66.8427 93.8295C66.8663 93.8073 66.7957 93.43 66.6663 93.0084C66.3841 91.9875 65.4079 90.1676 64.079 88.1813C63.1028 86.7166 61.7386 84.2975 61.7386 84.0201C61.7386 83.9535 61.9033 84.0867 62.1032 84.2975L62.4678 84.6859L62.3854 83.5762C62.0091 77.6728 58.081 71.6806 52.6123 68.6402C52.0008 68.2962 51.7538 68.1075 51.8008 67.9855C52.871 65.3777 53.9766 61.0723 53.9766 59.5742C53.9766 59.2746 54.0354 59.2191 54.4235 59.1192C54.6822 59.0416 54.8704 59.0416 54.8939 59.1082C54.9645 59.2968 55.3996 59.7739 55.5054 59.7739C55.5642 59.7739 55.7289 59.4743 55.87 59.1082L56.1288 58.4424L56.3993 58.9972C56.5521 59.2968 56.6933 59.552 56.7286 59.552C56.8226 59.552 57.493 58.4535 57.787 57.8098C57.9517 57.4548 58.081 57.2661 58.0928 57.3882C58.0928 57.5657 58.1986 57.5102 58.6573 57.0997C58.9631 56.8222 59.3159 56.5226 59.4335 56.4339C59.6452 56.2896 59.657 56.3007 59.5864 56.6558L59.5041 57.022L59.8334 56.8333C60.5273 56.4117 61.0447 55.9678 61.4093 55.4906C61.6092 55.2243 61.7974 55.0246 61.8209 55.0468C61.8445 55.069 61.8092 55.302 61.7504 55.5683C61.6916 55.8346 61.6563 56.0677 61.6798 56.101C61.7739 56.1897 62.6207 55.5017 64.0555 54.1923C65.2668 53.0827 65.4785 52.9273 65.3844 53.2158C65.3256 53.4378 65.3256 53.5598 65.3962 53.5598C65.5726 53.5598 66.8898 52.3503 67.125 51.9841C67.3367 51.6512 67.5013 51.5846 67.5013 51.8288C67.5013 52.4058 68.2658 51.5957 68.6892 50.5748C68.8421 50.2086 68.9009 50.1421 68.9126 50.3196C68.9126 50.475 68.9714 50.5637 69.0655 50.5415C69.3478 50.4417 70.2298 49.2321 70.5121 48.5442L70.7943 47.8451L70.7238 48.4998C70.6885 48.8549 70.5826 49.3653 70.5003 49.6316C70.418 49.8979 70.3827 50.1199 70.418 50.1199C70.465 50.1088 70.712 49.8647 70.9707 49.565C72.2527 48.0892 72.876 46.347 73.3229 42.9958C73.3934 42.5187 73.4405 42.4632 74.1226 42.0304C74.5225 41.7863 74.8518 41.5977 74.8635 41.6088C74.8871 41.6199 75.0635 43.0069 75.2634 44.6825C75.5104 46.6466 75.6868 47.7785 75.7926 47.8451C75.9338 47.956 76.1102 49.1767 76.2748 51.1408C76.3454 52.0063 76.3924 52.1173 76.6394 51.8842C76.7805 51.7511 76.7923 51.8066 77.0275 53.116C77.2745 54.4476 77.251 54.3921 77.4391 54.159C77.592 53.9704 77.6038 54.0037 77.5567 54.5031C77.4391 55.7792 77.4156 56.8888 77.4862 57.832L77.5567 58.8307L77.839 58.3314L78.133 57.832L78.2859 58.6643C78.5329 60.0292 78.7916 62.0044 78.7916 62.5592C78.7916 62.8477 78.8739 63.2583 78.968 63.4691C79.2268 64.0462 79.2032 64.3236 78.8857 64.3236H78.6387L78.9092 64.601L79.1915 64.8784L78.6387 64.8118L78.0977 64.7341L78.3329 65.4887C78.4623 65.8993 78.5446 66.2544 78.5211 66.2877C78.4858 66.3099 78.3447 66.2766 78.2036 66.21C77.7684 65.9881 77.8155 66.1656 78.3094 66.665C78.5799 66.9202 78.7916 67.1532 78.7916 67.1643C78.7916 67.242 78.1565 66.9646 77.8272 66.7537C77.6391 66.6206 77.4626 66.5429 77.4391 66.5651C77.298 66.6982 77.1451 68.2518 77.1451 69.6167C77.1451 74.3882 79.0033 79.1931 82.8255 84.242C84.8484 86.9163 88.353 90.7779 91.1521 93.3967C93.0691 95.2055 94.4686 96.3485 96.9619 98.1683C100.537 100.765 102.372 102.296 103.795 103.839C104.383 104.471 104.853 104.882 105.1 104.959C105.383 105.059 105.477 105.137 105.418 105.27C105.03 106.113 104.994 106.391 104.994 108.044C104.994 108.988 105.089 110.341 105.183 111.04C105.288 111.739 105.406 112.572 105.441 112.882L105.512 113.437L104.971 113.637C104.677 113.748 104.371 113.926 104.312 114.036C103.948 114.669 104.536 116.578 105.347 117.388C105.7 117.743 105.665 117.798 105.018 117.931C104.136 118.12 103.16 117.809 102.478 117.121C101.984 116.644 101.772 116.223 101.631 115.479C101.454 114.602 101.325 114.336 100.89 113.992C100.608 113.759 100.443 113.704 100.208 113.759C99.5139 113.926 99.067 114.736 99.361 115.324C99.5139 115.645 99.5139 115.634 99.02 115.401C98.6672 115.246 98.5966 115.246 98.3261 115.379C97.891 115.612 97.7263 115.989 97.7263 116.844C97.7263 118.22 98.1967 119.84 98.9141 120.95C99.314 121.56 99.314 121.582 99.067 121.582C98.9729 121.582 98.726 121.738 98.526 121.926C98.1732 122.248 98.1732 122.281 98.2203 123.036C98.3849 125.078 100.361 127.075 103.124 127.996C103.924 128.262 104.195 128.285 105.606 128.296C107.347 128.296 107.699 128.218 108.828 127.574C110.099 126.842 112.392 124.822 113.168 123.757C114.18 122.348 115.567 119.119 116.249 116.6C117.32 112.594 117.249 108.655 116.014 103.961C115.626 102.507 115.614 102.474 115.026 101.93C114.227 101.198 114.121 100.987 114.415 100.809C114.638 100.687 114.626 100.665 114.297 100.21C113.885 99.6331 113.874 99.5665 114.25 99.6331C114.709 99.7218 114.638 99.2003 114.109 98.6233C113.756 98.2238 113.709 98.1239 113.862 98.0462C113.956 98.0019 114.156 97.8576 114.309 97.7466L114.591 97.5247L114.215 97.447C114.003 97.4137 113.838 97.3471 113.838 97.3139C113.838 97.2806 114.003 96.9699 114.203 96.6259L114.579 96.0045L113.744 96.7701L112.909 97.5358L112.839 97.214C112.357 95.1389 111.604 93.2525 110.745 91.9653C109.852 90.6337 109.487 89.9235 109.134 88.8249L109.028 88.5142L109.463 88.8249L109.887 89.1245L109.487 88.4587C108.993 87.6376 108.311 86.6611 107.641 85.8288C107.076 85.1298 107.029 85.0077 107.382 85.1852C107.511 85.2629 107.652 85.2962 107.676 85.2629C107.782 85.163 106.864 82.8882 106.182 81.5566C105.806 80.8132 105.041 79.5703 104.489 78.7936C103.936 78.0279 103.489 77.3732 103.489 77.3621C103.489 77.3399 103.654 77.3732 103.854 77.4398C104.042 77.5064 104.23 77.5286 104.253 77.5064C104.371 77.3954 102.866 75.8197 101.266 74.3771C98.8318 72.18 96.6679 70.116 96.6679 69.9939C96.6679 69.9385 96.7855 69.9163 96.9148 69.9496C97.1618 70.0161 97.1618 69.9939 96.856 69.5279C95.8564 68.0187 95.4565 66.7426 95.4447 65.0449C95.433 63.7687 95.5741 62.3262 95.7035 62.3262C95.7505 62.3262 95.9152 62.5148 96.0798 62.7478L96.3738 63.1584L96.4091 61.383C96.4444 59.7185 96.2445 57.4215 95.9622 56.3007C95.8681 55.9123 95.8799 55.879 96.0916 55.9234C96.3738 55.99 96.3738 56.1675 96.0798 52.8607C95.8211 49.9978 95.6917 49.1545 95.4095 48.3444C95.1272 47.5455 94.1981 45.8699 93.9276 45.6479C93.6806 45.4593 93.6924 45.4593 94.1628 45.6368C94.7509 45.8477 95.1037 45.7922 95.5976 45.3927C96.0445 45.0376 96.268 44.3385 96.3621 42.9736C96.4209 42.2746 96.5267 41.7863 96.7384 41.3092C98.2673 37.9358 98.479 37.159 98.479 34.862C98.479 33.2863 98.3379 32.454 97.8674 31.0891C97.5734 30.2791 97.5499 30.0572 97.5499 28.3705C97.5499 26.5617 97.5499 26.5284 97.1736 25.6851C96.9619 25.2079 96.3974 24.1981 95.9034 23.4436C95.4212 22.689 94.9743 21.9344 94.9037 21.768C94.7156 21.3019 94.939 20.736 95.6211 19.9925C96.4679 19.0604 96.8207 18.3058 96.8795 17.2627C96.9383 16.2197 96.7149 15.4984 96.1386 14.8548C95.68 14.3665 94.8567 14.0003 94.3745 14.078C94.0335 14.1446 94.0335 14.1668 94.2569 13.39C94.5039 12.5245 94.4804 10.9377 94.2099 9.92787C93.7394 8.2079 92.4222 6.28818 90.8345 5.01207C87.8709 2.63739 83.9781 0.961792 79.7677 0.240509C78.7681 0.062973 75.3457 -0.0590973 74.3813 0.0296783ZM90.5993 19.2601C90.6464 19.3156 90.5641 19.3378 90.4347 19.3045C90.1642 19.2379 90.1289 19.1603 90.3641 19.1603C90.4582 19.1603 90.5641 19.2047 90.5993 19.2601ZM43.6389 104.848C43.7683 105.082 43.7683 105.093 43.5919 104.948C43.4743 104.871 43.3919 104.76 43.3919 104.704C43.3919 104.538 43.4978 104.593 43.6389 104.848Z" fill="white"/>
</svg>
