<svg width="165" height="121" viewBox="0 0 165 121" fill="none" xmlns="http://www.w3.org/2000/svg">
<path d="M23.3691 1.76604C24.091 3.24848 25.2383 5.72351 25.8441 7.08993C26.0375 7.50243 28.3192 10.1837 30.2399 12.2462C32.0059 14.1283 34.2747 16.281 35.77 17.467C36.724 18.2276 36.9044 18.4596 37.7552 19.8776C38.2708 20.7541 39.0185 21.9659 39.431 22.5846C40.4623 24.1186 43.092 27.2382 44.1361 28.1534C45.2319 29.1331 46.0698 30.2675 46.3276 31.1312C46.4307 31.505 46.5983 31.8918 46.7014 31.9691C46.8045 32.0593 47.1655 32.5105 47.5006 32.9875C49.0475 35.2047 49.5889 35.7203 50.5042 35.9008C51.1358 36.0297 52.1413 36.5453 52.7859 37.0867C53.0952 37.3317 53.3402 37.4993 53.3402 37.4477C53.3402 37.409 53.5077 37.4606 53.714 37.5766C54.539 38.002 56.4597 38.4274 59.1797 38.8012C62.0672 39.1879 63.5496 39.4973 64.2457 39.8583C64.452 39.9614 65.1094 40.3223 65.7153 40.6446C67.5845 41.6501 69.4407 42.1528 73.3853 42.7329C77.8197 43.3774 80.1658 43.9446 82.8342 45.0017C83.3756 45.2208 84.7807 45.6849 85.9538 46.0201C88.4417 46.7548 89.9628 47.2962 92.0125 48.1857C94.2039 49.1396 95.493 49.565 98.445 50.2869C101.204 50.9701 101.797 51.215 104.542 52.7361C105.161 53.0842 106.386 53.7287 107.249 54.167C108.126 54.6053 109.235 55.2112 109.724 55.5206C110.794 56.2038 112.857 58.1889 114.094 59.7101C114.597 60.3417 115.048 60.8444 115.113 60.8444C115.358 60.8444 117.588 63.5515 117.949 64.2992C118.58 65.5754 119.534 66.3359 125.464 70.2676C126.946 71.2602 128.906 72.575 129.808 73.1938C133.134 75.4755 137.375 77.654 142.609 79.7681C145.509 80.9283 152.896 83.6353 156.789 84.9502C158.207 85.4271 159.96 86.0846 160.682 86.4068C162.125 87.0385 163.891 88.16 164.562 88.8561L165 89.3073L164.239 89.5264C163.827 89.6424 161.971 90.2354 160.102 90.8284C154.623 92.5815 153.682 92.7878 149.724 93.0843C139.206 93.8577 130.027 90.5319 119.599 82.1787C117.227 80.2837 116.969 80.0259 115.886 78.595C115.061 77.5251 112.896 75.1145 112.818 75.1919C112.792 75.2176 112.238 76.9708 111.594 79.0978C109.621 85.6334 109.247 87.3865 109.518 88.8432C109.711 89.926 110.472 91.4213 111.658 93.0714C112.199 93.819 112.908 94.9405 113.244 95.5851C113.849 96.7195 113.862 96.771 113.862 97.9054C113.862 98.9753 113.824 99.1429 113.398 100.045C113.14 100.587 112.522 101.631 112.019 102.366C111.001 103.9 110.859 104.157 109.363 107.29C108.642 108.798 108.074 109.791 107.701 110.229C107.391 110.577 106.631 111.711 105.999 112.756C105.38 113.787 104.581 114.973 104.233 115.385C103.704 116.03 103.511 116.159 102.879 116.339C101.835 116.636 101.152 117.177 99.618 118.917C98.8961 119.742 98.1485 120.477 97.9551 120.554C97.1688 120.851 95.8539 120.825 93.9461 120.477C92.9148 120.284 91.6644 120.078 91.1488 120.026C90.0273 119.897 89.5761 119.601 89.1507 118.75C88.7382 117.912 88.6609 115.798 89.0089 114.663C89.2409 113.916 89.2667 113.89 89.8855 113.671C90.2464 113.555 91.1101 113.4 91.8191 113.323C94.3844 113.026 94.3973 113.026 96.8723 111.26C98.7543 109.907 99.5665 109.107 99.7598 108.373C99.9661 107.586 100.443 106.697 101.371 105.369C102.351 103.951 102.699 103.204 102.802 102.211L102.879 101.45L102.312 100.883C101.681 100.252 101.255 100.097 99.5922 99.8906C98.1227 99.723 97.2461 99.4523 96.7563 99.0269C96.5242 98.8206 95.725 98.2277 94.9773 97.6863C93.5336 96.655 90.891 94.2831 89.357 92.6717C87.3589 90.5448 85.0901 87.3994 84.0718 85.3369C81.3131 79.7165 81.2873 79.665 80.9393 79.5618C80.7588 79.5103 80.024 79.4716 79.3151 79.4845C77.9744 79.4974 77.5232 79.5876 74.8677 80.3868C73.5013 80.8122 72.354 81.0829 70.0724 81.5341C67.3009 82.0884 61.9125 82.5396 57.7746 82.5396L54.4101 82.5525L54.2425 86.1619C54.1394 88.16 54.0491 90.867 54.0363 92.2077C54.0105 93.5354 53.946 95.0308 53.8687 95.5206C53.7913 96.0105 53.7269 97.0675 53.7269 97.8925C53.7269 99.3878 53.5206 100.806 53.1597 101.811C53.005 102.25 52.9534 102.868 52.9663 104.518C52.9921 106.62 52.9792 106.697 52.5925 107.741C52.3733 108.36 51.7546 109.533 51.1616 110.461C49.8983 112.459 49.5503 113.22 49.2925 114.47C48.9186 116.249 48.171 117.306 47.2944 117.306C47.1268 117.306 46.6627 117.461 46.276 117.641C45.1803 118.157 43.4658 118.466 41.674 118.479C39.3666 118.479 37.8841 118.105 36.8915 117.254C36.6208 117.022 36.2341 116.79 36.0407 116.739C35.5509 116.623 35.1642 116.172 35.1642 115.733C35.1642 115.334 35.5509 114.483 35.8345 114.251C36.1052 114.032 39.8822 112.163 40.6427 111.879C41.7385 111.466 42.383 110.603 42.5764 109.262C42.6408 108.901 42.8471 108.36 43.0533 108.038C43.685 107.032 43.9557 105.962 44.0201 104.093C44.0975 102.121 43.917 100.69 43.092 96.3972C42.7697 94.7987 42.4346 92.7362 42.3314 91.821C42.2283 90.9057 41.906 89.2557 41.6096 88.1084C41.3131 86.974 40.8877 85.2596 40.6427 84.3056C40.1658 82.4236 39.7791 81.2376 39.2248 79.9228C38.9154 79.1751 38.5802 78.7884 36.3372 76.5067C34.945 75.0887 33.2821 73.3227 32.6505 72.575C32.0188 71.8274 30.3946 70.0871 29.0411 68.7078C25.8055 65.382 25.5992 64.9695 24.8387 60.6253C24.6195 59.3233 24.3359 58.1245 24.1426 57.712C23.975 57.3253 23.4722 55.8815 23.034 54.5151C22.0156 51.3182 21.4097 49.8486 20.5331 48.4048C19.7468 47.09 19.6824 46.9482 19.257 45.4013C18.6124 43.0938 18.4964 42.1399 18.5866 39.7036L18.664 37.4477L18.303 36.6742C18.0968 36.2488 17.6585 35.4754 17.3362 34.9598L16.7304 34.0316H15.7765C15.2479 34.0316 14.4745 33.9543 14.062 33.8512C13.6495 33.748 12.3217 33.632 11.1229 33.5805C8.13223 33.4644 7.34589 33.3355 6.25018 32.807C5.73455 32.5621 5.23181 32.3172 5.12868 32.2527C5.02555 32.1883 4.43258 31.8918 3.81382 31.5824C2.51185 30.9379 2.25404 30.6929 1.00363 28.8882C-0.0662992 27.3413 -0.195207 26.8902 0.217298 26.078C0.526676 25.4593 1.17121 24.9179 2.22826 24.3893C2.65365 24.1831 3.46577 23.7448 4.03297 23.4096C5.27048 22.6878 6.72714 22.1206 8.00332 21.837C9.91116 21.4116 10.4655 21.1022 11.2131 20.0065C11.4323 19.6842 11.7803 19.0139 11.9608 18.524C12.4506 17.2736 12.9276 16.6678 14.3069 15.5334C14.9643 14.9791 15.9311 14.0767 16.4597 13.5095C17.4909 12.4009 18.5738 11.5759 19.721 11.0087L20.4429 10.6607L20.5847 9.68097C20.6621 9.13956 20.8167 7.74736 20.9199 6.5743C21.1261 4.07349 21.5644 1.14728 21.7707 0.734778C21.964 0.373836 22.2863 3.71284e-06 22.4023 3.71284e-06C22.4668 3.71284e-06 22.8922 0.799231 23.3691 1.76604Z" fill="white"/>
</svg>
