<svg width="399" height="399" viewBox="0 0 399 399" fill="none" xmlns="http://www.w3.org/2000/svg">
<circle cx="199.5" cy="199.5" r="189.5" stroke="white" stroke-width="20"/>
<path d="M191.498 273.305C168.748 272.23 147.288 262.432 131.573 245.947C115.859 229.463 107.099 207.558 107.113 184.783C107.113 135.867 146.867 96.1133 195.783 96.1133C243.369 96.1133 282.089 133.502 284.305 180.498L253.271 171.187C250.855 160.943 245.748 151.529 238.476 143.919C231.204 136.31 222.032 130.78 211.907 127.903C201.783 125.025 191.073 124.904 180.886 127.551C170.699 130.198 161.403 135.518 153.961 142.961C146.518 150.403 141.198 159.699 138.551 169.886C135.904 180.073 136.025 190.783 138.903 200.907C141.78 211.032 147.31 220.204 154.919 227.476C162.529 234.748 171.943 239.855 182.187 242.271L191.498 273.305ZM343.567 184.783C343.567 189.217 343.419 193.65 342.975 198.084L313.862 189.365C314.01 187.887 314.01 186.261 314.01 184.783C314.01 119.463 261.103 66.5567 195.783 66.5567C130.463 66.5567 77.5567 119.463 77.5567 184.783C77.5567 250.103 130.463 303.01 195.783 303.01C197.261 303.01 198.887 303.01 200.365 302.862L209.084 331.975C204.65 332.419 200.217 332.567 195.783 332.567C114.207 332.567 48 266.36 48 184.783C48 103.207 114.207 37 195.783 37C277.36 37 343.567 103.207 343.567 184.783ZM287.852 247.739L321.399 236.507C328.197 234.291 328.049 224.537 321.251 222.468L208.936 188.773C203.32 187.148 198 192.32 199.773 197.936L233.468 310.251C235.537 317.197 245.291 317.345 247.507 310.399L258.739 276.852L316.522 334.635C319.478 337.591 324.059 337.591 327.015 334.635L345.783 315.867C348.739 312.911 348.739 308.33 345.783 305.374L287.852 247.739Z" fill="white"/>
</svg>
