<svg width="142" height="96" viewBox="0 0 142 96" fill="none" xmlns="http://www.w3.org/2000/svg">
<path d="M93.7225 0.0235574C93.4488 0.296594 93.4488 0.296594 93.1695 0.575146C93.2311 1.89646 93.5651 2.5217 94.5175 3.41928C94.7439 3.63259 94.9702 3.8459 95.2034 4.06567C96.1615 4.91251 97.1444 5.72194 98.1436 6.51981C99.0722 7.27172 99.9744 8.04988 100.878 8.83174C102.534 10.2591 104.244 11.5982 105.988 12.9164C109.727 15.7575 113.468 18.6531 116.919 21.8382C117.503 22.3629 117.503 22.3629 118.148 22.8445C123.599 27.4374 128.22 34.9514 131.053 41.3927C131.198 41.7177 131.344 42.0426 131.494 42.3774C134.882 50.3609 136.841 59.6948 133.654 68.0306C131.404 73.4787 127.895 77.3574 122.481 79.7281C117.022 81.7531 110.829 81.823 105.412 79.5978C103.732 78.798 102.333 77.9451 101.463 76.2656C101.003 74.6734 100.947 73.0485 100.84 71.4007C100.311 63.6907 95.7825 56.6565 90.4043 51.3213C90.1633 51.081 89.9224 50.8407 89.6741 50.593C78.9898 40.4473 62.8192 36.3539 48.4564 36.6679C42.6393 36.8995 37.2408 39.04 32.8361 42.8234C31.0054 44.3936 29.1264 45.4109 26.8045 46.0812C26.7817 45.7684 26.7589 45.4555 26.7354 45.1332C26.4375 42.8909 25.5814 41.2729 23.7995 39.8597C21.8793 38.5653 19.9197 38.3433 17.6523 38.735C15.6911 39.3066 14.2104 40.8784 13.1383 42.5616C11.9423 44.9949 12.0158 47.1519 12.7873 49.7053C12.9999 50.5826 13.084 51.25 12.9785 52.1487C12.5211 52.9042 12.5211 52.9042 11.8724 53.5966C11.5302 53.9934 11.5302 53.9934 11.1811 54.3981C10.8389 54.7864 10.8389 54.7864 10.4898 55.1824C7.0985 59.1285 4.62918 63.6646 3.18033 68.6587C3.12178 68.8595 3.06322 69.0603 3.0029 69.2672C1.59002 74.198 0.0789102 79.5419 0.0165359 84.6924C0.0110777 84.9044 0.00561952 85.1164 -4.05617e-06 85.3349C0.0249976 86.1122 0.116558 86.7213 0.610295 87.3388C1.70801 88.3219 2.43154 88.3035 3.85327 88.2778C4.61441 88.7884 4.61441 88.7884 5.23588 89.3809C8.71272 90.5368 12.0477 88.5105 15.1109 87.0124C17.0089 86.0969 18.6729 85.7066 20.7556 85.7439C20.9463 85.7441 21.137 85.7443 21.3335 85.7444C22.3601 85.7532 23.3177 85.8293 24.3158 86.0714C23.8596 86.4355 23.4033 86.7995 22.9332 87.1746C23.0016 87.4192 23.0701 87.6638 23.1406 87.9158C23.2305 89.1039 22.8463 89.3152 22.1036 90.2083C21.8963 91.2598 21.8963 91.2598 21.8271 92.1389C22.1921 92.3209 22.5571 92.5029 22.9332 92.6905C23.3895 92.2354 23.8457 91.7804 24.3158 91.3115C24.3957 91.4821 24.4755 91.6528 24.5578 91.8286C24.8689 92.4147 24.8689 92.4147 25.4219 92.9663C26.1455 92.9102 26.4402 92.7913 26.919 92.2412C27.0295 92.0652 27.14 91.8893 27.2538 91.708C27.575 91.183 27.575 91.183 27.9106 90.7599C28.0931 90.7599 28.2756 90.7599 28.4636 90.7599C28.3724 90.9419 28.2811 91.124 28.1871 91.3115C28.15 92.0485 28.1752 92.7794 28.1871 93.5179C28.5521 93.6999 28.9171 93.8819 29.2932 94.0694C29.5714 93.8069 29.8475 93.5422 30.1228 93.2765C30.2767 93.1294 30.4307 92.9822 30.5894 92.8305C30.9523 92.4147 30.9523 92.4147 30.9523 91.8631C31.7366 91.5448 32.5233 91.243 33.3189 90.9538C33.6765 90.8203 34.034 90.6867 34.3915 90.5531C34.5692 90.4905 34.7469 90.4279 34.93 90.3635C35.9577 89.9722 36.5656 89.6124 37.2734 88.7636C37.7775 88.2219 38.0074 88.021 38.749 87.9162C39.4634 87.9533 40.1492 88.0419 40.8552 88.1571C41.0907 88.1886 41.3261 88.22 41.5687 88.2524C42.0423 88.3161 42.5155 88.383 42.9882 88.453C45.154 88.7713 47.3098 88.9006 49.4965 88.9845C49.7886 88.9964 50.0807 89.0083 50.3817 89.0206C51.0947 89.0495 51.8078 89.0777 52.5209 89.1051C51.6909 90.1911 50.9019 90.8418 49.7557 91.5873C49.2027 92.4147 49.2027 92.4147 49.2545 93.1214C49.4792 93.7936 49.4792 93.7936 50.3088 94.3452C50.5825 93.9812 50.8563 93.6171 51.1383 93.2421C51.4853 93.5338 51.4853 93.5338 51.5186 94.1901C51.6914 94.8968 51.6914 94.8968 52.5209 95.4484C52.7034 95.0844 52.8859 94.7203 53.074 94.3452C53.2615 94.374 53.449 94.4028 53.6421 94.4325C54.945 94.5459 55.7901 94.5682 56.8945 93.812C57.3664 93.3736 57.8275 92.9231 58.275 92.4599C59.0676 91.6792 59.5846 91.3419 60.6999 91.2576C60.9437 91.264 61.1875 91.2704 61.4387 91.277C61.6854 91.282 61.9321 91.287 62.1862 91.2921C62.373 91.2985 62.5598 91.3049 62.7522 91.3115C62.5758 91.4747 62.3993 91.6379 62.2175 91.806C61.989 92.0239 61.7606 92.2419 61.5252 92.4664C61.2974 92.6808 61.0696 92.8951 60.8349 93.116C60.2295 93.834 60.0772 94.2521 59.987 95.1726C60.352 95.4457 60.717 95.7187 61.0931 96C61.1558 95.8237 61.2186 95.6473 61.2832 95.4657C61.403 95.2779 61.5227 95.0902 61.6461 94.8968C61.8575 94.8556 62.0689 94.8143 62.2867 94.7719C63.1089 94.6047 63.5314 94.336 64.2039 93.8454C66.0984 92.5331 68.0619 91.5714 70.3954 91.5388C74.7173 91.439 78.3138 90.9261 82.2068 88.9678C83.4538 88.3631 84.6309 88.0469 85.9972 87.8296C89.3065 87.3003 91.9987 86.2735 94.7109 84.3261C95.4033 83.8502 95.8971 83.5686 96.7513 83.6248C99.1731 84.0808 101.396 85.0542 103.649 86.0206C108.973 88.3042 114.306 88.9444 119.992 87.7262C120.281 87.6682 120.571 87.6103 120.869 87.5506C125.576 86.421 129.972 83.7729 133.542 80.5555C133.774 80.3476 133.774 80.3476 134.012 80.1355C137.414 77.0518 139.761 73.7088 141.008 69.2479C141.079 69.0203 141.15 68.7926 141.223 68.5581C142.003 65.751 141.982 62.9489 141.976 60.0544C141.975 59.1907 141.987 58.3278 141.999 57.4642C142.028 52.7058 141.302 48.1825 139.4 43.7887C139.306 43.5635 139.212 43.3383 139.115 43.1063C136.627 37.2478 133.372 32.0174 129.394 27.0514C129.175 26.7737 128.955 26.4961 128.729 26.21C123.002 19.0716 115.7 13.8262 108.302 8.53204C107.005 7.60257 105.717 6.66022 104.435 5.70946C102.6 4.34997 100.757 3.01259 98.8555 1.74727C98.6871 1.63522 98.5188 1.52316 98.3454 1.40771C96.6507 0.295209 95.7448 -0.106566 93.7225 0.0235574Z" fill="#FEFEFE"/>
</svg>
