<?xml version="1.0" encoding="UTF-8"?>
<svg version="1.1" xmlns="http://www.w3.org/2000/svg" width="512" height="348">
<path d="M0 0 C0.99 0.99 0.99 0.99 2 2 C1.77716533 6.79094542 0.56951984 9.05798036 -2.875 12.3125 C-3.69355469 13.0859375 -4.51210937 13.859375 -5.35546875 14.65625 C-8.82007656 17.72680345 -12.37455245 20.66168843 -15.98828125 23.5546875 C-19.34614209 26.28104403 -22.60905968 29.10255415 -25.875 31.9375 C-31.86596768 37.11296465 -38.04883986 41.96821242 -44.35693359 46.74804688 C-57.87671082 57.04959481 -71.40670909 67.54865974 -83.88671875 79.09765625 C-86 81 -86 81 -88.33203125 82.74609375 C-108.04475559 99.39944945 -124.75364364 126.64433476 -135 150 C-135.5259375 151.17820313 -136.051875 152.35640625 -136.59375 153.5703125 C-148.84784193 182.51747865 -155.93312827 216.36139042 -144.40625 246.5859375 C-136.26948407 266.34019701 -123.58182883 280.40395132 -104 289 C-84.25789126 296.34245631 -61.8645375 296.59579731 -42.2734375 288.52734375 C-36.19935352 285.62741427 -31.13942476 282.53493725 -27.9921875 276.4453125 C-26.32962595 270.67216571 -26.12468211 264.7802512 -25.73974609 258.80566406 C-23.82737603 230.85012787 -7.44960652 205.344898 12 186 C12.87140625 185.12859375 13.7428125 184.2571875 14.640625 183.359375 C53.27904091 146.57190117 111.7578332 131.72969493 163.69873047 132.86816406 C184.73557559 133.70826881 204.25851147 141.46924191 220.1875 155.1875 C226.80789273 160.88086284 233.60313165 164.56932758 242 167 C242.0825 165.865625 242.165 164.73125 242.25 163.5625 C243.32732375 155.43229674 246.4231672 149.56571021 252.8671875 144.44140625 C259.81149788 139.74827341 266.89810583 138.94324738 275.09765625 140.36328125 C282.19011034 142.43602628 287.54491874 148.13527043 291.421875 154.23828125 C295.74714719 163.06120968 295.48142635 170.88226233 292.69140625 180.140625 C291.92228824 183.32138422 291.61840838 185.74146478 292 189 C293.65400348 191.73939648 293.65400348 191.73939648 296 194.25 C297.2375 195.68859375 297.2375 195.68859375 298.5 197.15625 C299.7375 198.56390625 299.7375 198.56390625 301 200 C313.26408589 214.30810021 322.1940232 230.75536123 327.43359375 248.86328125 C327.64533737 249.59145554 327.85708099 250.31962982 328.07524109 251.06987 C333.18470821 268.94817512 338.64943181 288.32475849 338.875 307 C338.89473877 307.76868408 338.91447754 308.53736816 338.93481445 309.3293457 C338.84439941 312.14787963 338.5133138 314.3562645 336.7277832 316.59545898 C332.75802783 320.16009924 330.14151271 320.09348205 325 320 C322.24743206 321.85164036 322.24743206 321.85164036 320 324 C307.42647431 328.19117523 295.36588985 320.84388943 284.28833008 315.41186523 C277.42434664 312.09234383 271.40688746 310.67723926 263.875 310.8125 C263.18535156 310.81314453 262.49570312 310.81378906 261.78515625 310.81445312 C258.07256495 310.84639703 254.60966947 311.12216209 251 312 C252.65 313.32 254.3 314.64 256 316 C255.7525 316.886875 255.505 317.77375 255.25 318.6875 C254.92486775 322.99550235 256.31443301 323.76152216 259 327 C259.75 330.8125 259.75 330.8125 260 334 C258.68 334.66 257.36 335.32 256 336 C254.35 334.35 252.7 332.7 251 331 C250.71125 331.61875 250.4225 332.2375 250.125 332.875 C249 335 249 335 247 337 C244.38303289 336.79668981 243.31739031 336.3656126 241.5859375 334.37109375 C241.18632812 333.73300781 240.78671875 333.09492188 240.375 332.4375 C239.21359192 330.53394697 239.21359192 330.53394697 238 329 C237.34 329 236.68 329 236 329 C236.33 329.66 236.66 330.32 237 331 C237.13415472 333.6723621 237.04318541 336.32250488 237 339 C235.68 339.66 234.36 340.32 233 341 C231.99403703 340.0479279 230.99538437 339.08812654 230 338.125 C229.443125 337.59132813 228.88625 337.05765625 228.3125 336.5078125 C227 335 227 335 227 333 C224.16379588 331.84592078 221.31885176 330.75176595 218.44140625 329.703125 C217.14832786 329.21904276 215.85536125 328.73466185 214.5625 328.25 C213.91990234 328.023125 213.27730469 327.79625 212.61523438 327.5625 C208.89861556 326.14377038 206.70023622 324.8390746 204.140625 321.76171875 C202.31778499 319.79762771 201.48612373 319.06886708 198.80444336 318.68896484 C196.22075372 318.82341664 193.74053451 319.14493872 191.1875 319.5625 C190.33607422 319.67658203 189.48464844 319.79066406 188.60742188 319.90820312 C186.89464504 320.13909536 185.183392 320.38158072 183.47387695 320.63549805 C175.64164907 321.78950142 167.84520534 322.2581656 159.9375 322.5625 C158.88111328 322.60568359 157.82472656 322.64886719 156.73632812 322.69335938 C154.15765121 322.79837337 151.57889565 322.90052877 149 323 C152.0018049 326.93743241 154.85509393 329.29680039 159 332 C161 335 161 335 160.8125 337.5625 C160 340 160 340 157 342 C156.01 340.68 155.02 339.36 154 338 C152.74519842 339.05768036 152.74519842 339.05768036 152.625 341.4375 C152 344 152 344 149 346 C148.34 344.68 147.68 343.36 147 342 C146.32195312 342.10441406 145.64390625 342.20882813 144.9453125 342.31640625 C140.23370397 342.72752999 137.17769058 342.8085393 133.18359375 340.06640625 C131.47697702 338.4767856 129.8096197 336.84359211 128.19140625 335.1640625 C125.324904 332.33332765 123.4550563 331.11023154 119.421875 330.8046875 C118.54015625 330.82789063 117.6584375 330.85109375 116.75 330.875 C115.85796875 330.89304687 114.9659375 330.91109375 114.046875 330.9296875 C113.37140625 330.95289063 112.6959375 330.97609375 112 331 C112.63808594 331.59167969 113.27617187 332.18335938 113.93359375 332.79296875 C114.75988281 333.58316406 115.58617187 334.37335938 116.4375 335.1875 C117.26121094 335.96480469 118.08492188 336.74210937 118.93359375 337.54296875 C121.12294002 340.1461801 121.67393495 341.66227956 122 345 C120.68 345.99 119.36 346.98 118 348 C117.773125 347.360625 117.54625 346.72125 117.3125 346.0625 C116.879375 345.381875 116.44625 344.70125 116 344 C115.23558594 343.85046875 114.47117187 343.7009375 113.68359375 343.546875 C110.70993333 342.94088889 109.18216401 341.96658293 106.75 340.1875 C99.89900619 335.4295477 92.79837398 331.94251452 84.359375 331.82421875 C68.72993224 331.46234168 55.72374264 329.60246207 41.64501953 322.50195312 C37.13567023 320.30943149 32.87859824 319.16286631 27.9375 318.375 C15.9701921 316.45571477 6.23395153 312.73269582 -3.57421875 305.671875 C-6.07814316 303.94614288 -7.8638289 302.92501271 -10.953125 303.12890625 C-19.71112642 304.78220244 -27.74990305 308.31173436 -35.89697266 311.81591797 C-55.15287122 320.0957033 -74.43822867 322.41716444 -95 318 C-96.04671875 317.78988281 -97.0934375 317.57976562 -98.171875 317.36328125 C-115.19323962 313.26776512 -131.09052186 303.66585074 -144 292 C-144.84232178 291.24614014 -144.84232178 291.24614014 -145.70166016 290.47705078 C-158.00483788 279.29582809 -166.49152695 267.17455841 -171 251 C-171.25749023 250.1745166 -171.51498047 249.3490332 -171.78027344 248.49853516 C-174.60105544 238.32057678 -174.52371489 228.16040022 -174.50097656 217.66503906 C-174.50001035 214.53355076 -174.54161508 211.40457017 -174.5859375 208.2734375 C-174.6890477 191.02003207 -172.06316452 174.61896151 -165.1875 158.6875 C-164.8469458 157.87104004 -164.5063916 157.05458008 -164.15551758 156.21337891 C-155.15664779 134.97116293 -143.38862181 116.00605973 -129 98 C-128.20722656 96.99324219 -127.41445312 95.98648438 -126.59765625 94.94921875 C-105.88366734 69.06609699 -79.47809816 50.0470117 -52.72631836 30.85083008 C-48.03289865 27.48067892 -43.37771479 24.06379647 -38.74072266 20.61645508 C-32.10551673 15.68708281 -25.43965127 10.83789026 -18.5625 6.25 C-17.9538208 5.84370361 -17.3451416 5.43740723 -16.71801758 5.01879883 C-10.58916245 0.98498035 -7.31310295 -0.47181309 0 0 Z " fill="#FEFEFE" transform="translate(174,0)"/>
</svg>
