<svg width="106" height="74" viewBox="0 0 106 74" fill="none" xmlns="http://www.w3.org/2000/svg">
<path d="M18.7727 0.0678469C18.9047 0.0980108 19.3007 0.180962 19.6389 0.256371C20.4227 0.414732 21.4209 0.852108 22.1304 1.34227C23.1122 2.0285 24.0445 3.13702 24.3085 3.95145C24.4157 4.30588 24.4652 4.35112 25.051 4.6603C28.7223 6.59833 31.9068 10.859 33.8704 16.4318C34.5469 18.3547 35.1904 21.0393 35.3636 22.638C35.4214 23.196 35.5451 23.3695 35.8586 23.3695C36.1639 23.3695 41.3285 23.7314 42.9455 23.8596C51.9216 24.6062 57.4657 25.7977 62.3745 28.0449C64.9568 29.2288 66.483 30.2016 68.1578 31.7324C71.8869 35.1485 73.8009 39.477 73.4956 43.8131C73.3224 46.377 72.3241 48.4583 70.4596 50.1399C69.5108 50.9996 68.5126 51.6255 67.0606 52.2891C64.6763 53.3675 61.9537 54.0009 58.3732 54.3026C56.7974 54.4307 50.6346 54.4307 49.2568 54.3026C45.2555 53.9255 42.401 53.2317 39.5629 51.9573C36.9724 50.7885 34.5221 49.1747 32.4018 47.2517C30.9663 45.9396 29.4895 43.6094 28.3675 40.8645C27.9468 39.839 27.6993 39.4544 27.3528 39.3035C27.1053 39.198 27.031 39.198 26.4783 39.3111C24.6797 39.6806 22.9307 40.6911 21.8499 41.9881C21.3219 42.6216 20.7527 43.6924 20.5794 44.3711C20.3732 45.178 20.4557 46.9124 20.7444 47.9078C21.0332 48.9334 21.5364 49.8232 22.1387 50.4189C22.5677 50.8337 22.7905 50.9694 23.9207 51.4898C31.3788 54.936 39.6702 56.776 50.8243 57.4698C53.2334 57.6206 60.4275 57.5904 62.5807 57.4245C72.6129 56.6553 80.2195 54.4232 86.5308 50.3888C88.2881 49.2652 88.9894 48.594 89.6081 47.4403C90.1526 46.4147 90.3589 45.5626 90.4001 44.1072C90.4579 42.237 90.1691 40.9776 89.3441 39.5072C88.5603 38.1121 87.6693 37.2675 85.7718 36.1137C83.602 34.779 81.5313 33.9645 76.0449 32.2754C70.8721 30.6767 66.4005 28.7311 63.711 26.9062C62.5065 26.0918 60.8812 24.5609 60.1635 23.5731C59.2395 22.2986 58.6042 20.9639 58.3237 19.7121C58.1917 19.0937 58.2082 17.6383 58.3649 16.9898C59.1817 13.5134 62.5477 10.6252 67.0028 9.57702C69.2303 9.04915 71.0289 8.92849 75.2859 9.01145C82.975 9.16226 84.7158 9.05669 87.8178 8.20456C89.4596 7.7521 90.3424 7.60128 91.5799 7.55604C92.8587 7.51079 93.3042 7.5862 93.6589 7.91046C93.8487 8.08391 93.8899 8.18948 93.8899 8.49112C93.8899 9.19243 93.1062 10.3387 92.0831 11.1305C89.9794 12.7669 87.4383 13.5964 82.7935 14.1695C82.0675 14.26 80.7145 14.4334 79.7822 14.5541C78.85 14.6747 77.2577 14.8406 76.2347 14.9236C71.3589 15.3157 69.6098 15.7983 68.2816 17.118C67.3163 18.0682 66.9038 19.3652 67.3246 20.1193C67.8856 21.1373 69.4118 22.0498 71.7631 22.7737C74.1062 23.5052 76.6142 24.0255 81.1435 24.7268C85.7553 25.4432 86.9021 25.7222 89.7896 26.8459C93.8074 28.4144 97.0662 30.3524 99.7145 32.758C103.18 35.9026 104.83 38.8888 105.415 43.0665C106.042 47.5609 104.475 53.4203 101.439 57.9071C98.477 62.2734 92.6359 66.3153 85.5326 68.9094C79.2047 71.2245 68.9168 73.0042 59.2807 73.4415C58.3237 73.4868 56.9542 73.5547 56.2282 73.5924C54.5039 73.6904 52.0866 73.6904 50.1231 73.5924C42.8877 73.2379 40.9407 73.0871 36.5104 72.5366C32.1956 72.0012 28.6893 71.3075 25.2985 70.297C16.2894 67.6199 9.25202 63.4196 4.28546 57.7563C1.98368 55.1321 0.82041 52.6963 0.341903 49.4989C-0.0293518 47.0481 -0.0706023 46.3393 0.0861498 45.1931C0.1274 44.8688 0.201651 44.258 0.251152 43.8432C0.465655 42.1088 1.04316 39.9596 1.73617 38.376C2.50343 36.619 3.35319 35.2842 4.67321 33.7836C7.99801 29.998 12.3458 27.4944 18.7562 25.677C19.8782 25.3603 22.6915 24.7042 23.7887 24.5006C24.094 24.4478 24.292 24.3649 24.3167 24.2895C24.391 24.1236 24.2177 22.2986 24.0445 21.4088C23.8382 20.3078 23.5577 19.4859 23.0875 18.6186C22.7327 17.9475 22.5677 17.7364 21.9984 17.216C21.5282 16.7937 21.1652 16.5373 20.7939 16.3714C19.7627 15.919 19.5317 15.8888 16.6276 15.8737C13.7648 15.8587 13.5256 15.836 9.86253 15.2554C6.85949 14.7878 5.07747 14.3128 3.4522 13.5511C1.59592 12.6839 0.548156 11.6282 0.201651 10.2783C-0.334606 8.1744 1.62892 5.84424 4.31846 5.40686L4.79696 5.33145L5.04447 4.83374C5.49822 3.92129 6.02623 3.46883 7.6185 2.63178C9.86253 1.46293 12.7336 0.565551 15.2251 0.263912C15.7696 0.196044 16.4626 0.105552 16.7679 0.0678469C17.4114 -0.0226448 18.4179 -0.0226448 18.7727 0.0678469ZM42.6732 37.8632C42.7227 37.999 45.371 39.658 46.3775 40.1858C47.813 40.9399 48.7206 41.2039 50.8821 41.5206C52.0454 41.694 55.1804 41.7091 55.3866 41.5508C55.4691 41.498 55.5269 41.4226 55.5269 41.3924C55.5269 41.317 54.7184 40.8721 53.7696 40.4272C51.3853 39.3035 48.4318 38.5495 43.5642 37.8255C43.094 37.7501 42.6402 37.7727 42.6732 37.8632Z" fill="white"/>
</svg>
