<svg width="166" height="86" viewBox="0 0 166 86" fill="none" xmlns="http://www.w3.org/2000/svg">
<path d="M19.4099 0.230125C18.6202 0.489061 18.4001 0.735051 18.1541 1.70606L17.9858 2.39224L16.717 2.5476C15.2411 2.72886 14.8268 2.85833 13.6098 3.46683C11.4735 4.51552 8.8324 6.52227 6.79975 8.6326C5.77696 9.69424 5.54391 9.99201 5.47918 10.4193C5.42739 10.7041 5.42739 11.0537 5.46623 11.209C5.53097 11.4291 5.28498 11.688 4.13271 12.6332C2.34605 14.0961 0.313405 16.1288 0.0933096 16.6596C-0.113839 17.1645 -0.0102648 17.4882 0.753596 18.6664C1.02548 19.0936 1.34915 19.7151 1.46567 20.0517C1.93176 21.437 2.95455 22.7058 4.11976 23.3272C4.58585 23.5732 4.88363 23.625 5.97116 23.625C6.68323 23.625 8.09443 23.5473 9.10428 23.4567C10.1141 23.3531 11.1758 23.3143 11.4735 23.3661C11.9396 23.4437 11.9914 23.4955 11.9267 23.7286C11.6289 24.8032 10.9816 25.7612 10.5673 25.7612C10.2695 25.7612 9.46679 25.2175 8.79356 24.5572C8.48284 24.2723 8.19801 24.0652 8.15917 24.117C8.10738 24.1688 8.13327 24.4277 8.21095 24.6866C8.28863 24.9456 8.34042 25.1916 8.31453 25.2175C8.23685 25.2951 7.55067 24.9067 7.23994 24.609C6.46314 23.8839 6.98101 25.3728 7.86139 26.4344C8.40516 27.0688 8.40516 27.0818 8.4181 28.1952C8.46989 30.4739 9.54447 31.7556 11.4088 31.7426C12.9495 31.7426 14.3089 30.927 15.3576 29.3863C15.9272 28.5448 16.6652 27.8974 17.5974 27.3925L18.2318 27.0688L18.8791 27.3925C19.9278 27.9233 21.2613 28.1305 23.1257 28.0399L24.744 27.9622L25.1195 28.6742C25.6115 29.6194 26.699 30.6033 28.1102 31.3931C30.091 32.4806 31.2822 33.9954 32.292 36.6754C32.784 37.983 32.8746 38.4102 33.1465 40.8442C33.4831 43.6537 34.1822 45.9323 35.3216 47.8744C35.5546 48.2757 36.3185 49.169 37.0046 49.8552L38.2475 51.1111L38.5971 52.9624C38.7784 53.9852 39.7235 59.0863 40.6815 64.2909L42.4294 73.768L41.782 75.0626L41.1347 76.3444L40.1896 76.4868C38.6489 76.7198 37.9498 76.9788 37.5096 77.4837C37.0694 77.9886 36.7198 79.0244 36.7198 79.8012C36.7198 80.3838 37.0694 81.2642 37.406 81.536C37.5225 81.6396 37.5872 81.782 37.5484 81.8727C37.4578 82.1057 38.869 83.3486 39.4386 83.5169C40.7722 83.9441 45.3942 83.737 48.2943 83.1285C49.4983 82.8696 49.5889 82.8178 49.7961 82.0669C50.3528 80.0342 50.6376 75.6711 50.4952 70.9456C50.3398 65.4302 50.3657 62.5042 50.5599 61.1707C50.9613 58.4001 51.6216 55.5648 52.5149 52.7812C53.0069 51.2664 53.0716 51.1369 53.3306 51.2017C53.4859 51.2276 54.5476 51.3441 55.6869 51.4606C64.8144 52.3281 69.9931 52.341 74.8481 51.5254C78.9005 50.8392 82.2667 50.0494 95.3041 46.735C97.6475 46.1395 98.4761 45.9841 98.6832 46.0747C99.3305 46.3596 100.91 50.1271 102.813 55.9273C104.004 59.5653 105.26 62.7761 107.176 67.0615C109.636 72.551 109.649 72.5768 109.584 73.3925C109.455 74.9332 108.38 76.8105 106.27 79.1668L105.118 80.4744L103.784 80.6298C100.806 80.9793 99.4082 82.3646 99.7189 84.6692L99.8096 85.3165H104.742H109.675L110.154 84.6303C110.905 83.5687 111.928 82.4812 112.446 82.2222C113.339 81.7691 115.048 79.4128 118.505 73.8845C119.45 72.3568 119.489 72.2661 119.553 71.3728C119.631 70.1946 119.424 69.4308 118.854 68.7575C118.608 68.4727 118.259 67.9289 118.09 67.5535C117.78 66.8673 117.21 64.6793 117.068 63.5659L116.99 62.9833L117.663 63.7471C120.136 66.5048 123.282 71.2692 124.279 73.768C125.341 76.3832 125.237 78.9726 123.994 80.9405L123.619 81.5231L122.376 81.5878C120.861 81.6655 120.11 82.0021 119.515 82.8437C119.152 83.3486 119.126 83.491 119.126 84.475C119.126 85.0705 119.165 85.5884 119.204 85.6272C119.282 85.7049 126.428 85.4719 126.894 85.3812C127.05 85.3424 127.386 84.941 127.723 84.3973C128.034 83.8924 128.927 82.6365 129.704 81.6008C130.481 80.565 131.257 79.4257 131.439 79.0632C132.267 77.4319 133.031 74.4153 133.303 71.6188C133.549 69.2107 133.303 68.5116 131.231 65.6374C129.794 63.6436 129.678 63.4364 129.315 62.2453C128.707 60.2644 128.357 57.4161 128.098 52.1727C127.891 47.8744 127.891 39.4978 128.098 37.2839C128.293 35.2512 128.5 33.9048 128.642 33.7364C128.914 33.4516 129.574 36.8437 130.584 43.6925C131.128 47.3953 131.646 49.2338 132.785 51.603C134.054 54.2183 136.151 56.9112 138.313 58.672C139.686 59.7984 142.055 61.2484 143.376 61.7792C145.149 62.4913 146.755 62.7891 148.93 62.7891C152.633 62.7891 155.507 61.9475 158.549 59.9667C160.724 58.5555 163.055 56.3675 164.608 54.2571C165.864 52.574 165.994 51.5383 165.074 50.6838C164.66 50.2954 163.922 50.2566 163.314 50.5673C162.369 51.0593 160.401 52.6906 158.381 54.6455C155.999 56.963 155.533 57.2737 153.72 57.7398C150.393 58.5814 147.234 58.4001 143.971 57.1443C140.864 55.9661 138.624 53.3767 137.304 49.4539C136.553 47.2011 136.384 45.9971 136.022 40.6371C135.776 36.9343 134.895 31.7426 133.886 28.0269C132.889 24.35 131.167 22.0066 127.839 19.7798C125.768 18.3945 122.078 16.7632 119.994 16.3101C117.65 15.7922 110.866 14.7435 104.147 13.8631L101.26 13.4747L91.2906 13.5524C77.9942 13.643 69.1257 13.397 66.5622 12.8662C62.9241 12.1023 61.0598 11.8564 57.1758 11.6492L54.6511 11.5197L49.4336 9.12458C44.0606 6.65174 40.1637 4.94276 38.9208 4.50257C38.0663 4.20479 35.5805 3.80344 30.2464 3.10432C25.1972 2.44403 25.482 2.49582 25.3914 2.19804C25.3396 2.05562 25.1583 1.75785 24.9771 1.5507C24.5628 1.05872 24.1226 1.04577 23.1775 1.51186C22.7891 1.69311 22.4654 1.82258 22.4395 1.79669C21.2225 -0.0935446 20.9118 -0.248906 19.4099 0.230125Z" fill="white"/>
</svg>
